<?xml version="1.0" encoding="iso-8859-1"?>
<!-- Generator: Adobe Illustrator 19.0.0, SVG Export Plug-In . SVG Version: 6.00 Build 0)  -->
<svg version="1.1" id="Capa_1" xmlns="http://www.w3.org/2000/svg" xmlns:xlink="http://www.w3.org/1999/xlink" x="0px" y="0px"
	 viewBox="0 0 448 448" style="enable-background:new 0 0 448 448;" xml:space="preserve">
<path style="fill:#F27668;" d="M196.4,215.52c-14.801,0-26.8-11.999-26.8-26.8c0,0,0,0,0,0V122.4h53.6v66.32
	C223.2,203.521,211.201,215.52,196.4,215.52C196.4,215.52,196.4,215.52,196.4,215.52z"/>
<g>
	<path style="fill:#FFECC7;" d="M250,215.52c-14.801,0-26.8-11.999-26.8-26.8c0,0,0,0,0,0V122.4h53.6v66.32
		C276.8,203.521,264.801,215.52,250,215.52z"/>
	<path style="fill:#FFECC7;" d="M143.2,215.52c-14.801,0-26.8-11.999-26.8-26.8c0,0,0,0,0,0V122.4H170v66.32
		C170,203.521,158.001,215.52,143.2,215.52C143.2,215.52,143.2,215.52,143.2,215.52L143.2,215.52z"/>
	<path style="fill:#FFECC7;" d="M112.24,8h218.08v42.24H112.24V8z"/>
</g>
<g>
	<path style="fill:#F27668;" d="M89.28,215.52c-14.801,0-26.8-11.999-26.8-26.8c0,0,0,0,0,0V122.4h53.6v66.32
		C116.08,203.521,104.081,215.52,89.28,215.52L89.28,215.52z"/>
	<path style="fill:#F27668;" d="M303.2,215.52c-14.801,0-26.8-11.999-26.8-26.8V122.4H330v66.32
		C330,203.521,318.001,215.52,303.2,215.52L303.2,215.52z"/>
	<path style="fill:#F27668;" d="M62.48,122.4l49.76-72.16h221.92l49.76,72.16H62.48z"/>
</g>
<g>
	<path style="fill:#FFECC7;" d="M67.36,440V208l11.2,4.96c11.03,4.793,23.905,1.5,31.28-8l6.16-7.52l6.16,7.52
		c9.048,11.377,25.605,13.265,36.982,4.218c1.561-1.242,2.976-2.656,4.218-4.218l6.16-7.52l6.16,7.52
		c9.048,11.377,25.605,13.265,36.982,4.218c1.561-1.242,2.976-2.656,4.218-4.218l6.16-7.52l6.16,7.52
		c9.048,11.377,25.605,13.265,36.982,4.218c1.561-1.242,2.976-2.656,4.218-4.218l6.16-7.52l6.16,7.52
		c9.048,11.377,25.605,13.265,36.982,4.218c1.561-1.242,2.976-2.656,4.218-4.218l6.16-7.52l6.16,7.52
		c7.375,9.5,20.25,12.793,31.28,8l11.2-4.96v232H67.36z"/>
	<path style="fill:#FFECC7;" d="M357.12,215.52c-14.801,0-26.8-11.999-26.8-26.8V122.4h53.6v66.32
		C383.92,203.521,371.921,215.52,357.12,215.52L357.12,215.52z"/>
</g>
<g>
	<path style="fill:#FFFFFF;" d="M155.52,249.76l63.84-0.16v99.68l-63.84,0.16V249.76z"/>
	<path style="fill:#FFFFFF;" d="M91.36,249.92l64.16-0.16v99.68l-63.84,0.16L91.36,249.92z"/>
</g>
<path style="fill:#F27668;" d="M246.72,440V315.2c1.338-26.33,23.661-46.652,50-45.52c26.339-1.132,48.662,19.19,50,45.52V440
	H246.72z"/>
<g>
	<path style="fill:#42362C;" d="M391.2,119.52v-0.64c-0.135-0.358-0.295-0.705-0.48-1.04l-49.76-72
		c-0.637-0.905-1.454-1.667-2.4-2.24V8c0-4.418-3.582-8-8-8H112.24c-4.418,0-8,3.582-8,8v40l-48,70.16
		c-0.212,0.332-0.399,0.68-0.56,1.04v0.64c-0.344,0.867-0.533,1.788-0.56,2.72v66.48c0.04,6.145,1.725,12.167,4.88,17.44V440
		c0,4.418,3.582,8,8,8h312c4.418,0,8-3.582,8-8V206.16c3.155-5.273,4.84-11.295,4.88-17.44v-66.48
		C392.509,121.23,391.937,120.304,391.2,119.52L391.2,119.52z M120.24,16h202.08v26.24H120.24L120.24,16z M116.48,58.24h213.44
		l38.72,56H77.76L116.48,58.24z M322.32,130.24v58.32c0,10.383-8.417,18.8-18.8,18.8c-10.383,0-18.8-8.417-18.8-18.8V130.4
		L322.32,130.24z M268.72,130.24v58.32c0,10.383-8.417,18.8-18.8,18.8c-10.383,0-18.8-8.417-18.8-18.8V130.4L268.72,130.24z
		 M215.12,130.24v58.32c0,10.383-8.417,18.8-18.8,18.8c-10.383,0-18.8-8.417-18.8-18.8V130.4L215.12,130.24z M161.52,130.24v58.32
		c0,10.383-8.417,18.8-18.8,18.8c-10.383,0-18.8-8.417-18.8-18.8V130.4L161.52,130.24z M70.4,130.24H108v58.32
		c0,10.383-8.418,18.8-18.801,18.799c-10.382,0-18.799-8.417-18.799-18.799V130.24z M338.72,432h-84V315.2
		c1.332-21.913,20.076-38.658,42-37.52c21.924-1.138,40.668,15.607,42,37.52V432z M370.72,432h-16V315.2
		c-1.342-30.747-27.245-54.648-58-53.52c-30.755-1.128-56.658,22.773-58,53.52V432H75.36V220.56
		c14.251,6.327,30.976,2.253,40.72-9.92c11.84,14.801,33.438,17.202,48.239,5.361c1.98-1.584,3.778-3.382,5.361-5.361
		c11.84,14.801,33.438,17.202,48.239,5.361c1.98-1.584,3.778-3.382,5.361-5.361c11.84,14.801,33.438,17.202,48.239,5.361
		c1.98-1.584,3.778-3.382,5.361-5.361c11.84,14.801,33.438,17.202,48.239,5.361c1.98-1.584,3.778-3.382,5.361-5.361
		c9.744,12.173,26.469,16.247,40.72,9.92L370.72,432z M375.6,188.72c0,10.383-8.417,18.8-18.8,18.8c-10.383,0-18.8-8.417-18.8-18.8
		V130.4h37.6V188.72z"/>
	<path style="fill:#42362C;" d="M211.68,241.92h-112c-8.837,0-16,7.163-16,16v83.68c0,8.837,7.163,16,16,16h112
		c8.837,0,16-7.163,16-16v-84C227.506,248.889,220.393,241.918,211.68,241.92L211.68,241.92z M147.68,341.44h-48v-83.68h48V341.44z
		 M211.68,341.44h-48v-83.68h48V341.44z"/>
	<path style="fill:#42362C;" d="M268.96,352.64c-4.418,0-8,3.582-8,8V376c0,4.418,3.582,8,8,8s8-3.582,8-8v-15.36
		C276.96,356.222,273.378,352.64,268.96,352.64z"/>
</g>
<g>
</g>
<g>
</g>
<g>
</g>
<g>
</g>
<g>
</g>
<g>
</g>
<g>
</g>
<g>
</g>
<g>
</g>
<g>
</g>
<g>
</g>
<g>
</g>
<g>
</g>
<g>
</g>
<g>
</g>
</svg>
