<?xml version="1.0" encoding="iso-8859-1"?>
<!-- Generator: Adobe Illustrator 19.0.0, SVG Export Plug-In . SVG Version: 6.00 Build 0)  -->
<svg version="1.1" id="Capa_1" xmlns="http://www.w3.org/2000/svg" xmlns:xlink="http://www.w3.org/1999/xlink" x="0px" y="0px"
	 viewBox="0 0 453.84 453.84" style="enable-background:new 0 0 453.84 453.84;" xml:space="preserve">
<g>
	<path style="fill:#FFFFFF;" d="M185.32,256.96h78.96v41.76h-78.96V256.96z"/>
	<circle style="fill:#FFFFFF;" cx="226.76" cy="181.44" r="25.12"/>
	<path style="fill:#FFFFFF;" d="M120.6,278.72h41.76v41.76H120.6V278.72z"/>
	<path style="fill:#FFFFFF;" d="M358.28,356h41.76v41.76h-41.76V356z"/>
</g>
<path style="fill:#FFECC7;" d="M28.12,230.4l23.44-48h96l78.8-80l78.8,80h96l23.44,48H28.12z M226.76,156.32
	c-13.873,0-25.12,11.247-25.12,25.12c0,13.873,11.247,25.12,25.12,25.12c13.873,0,25.12-11.247,25.12-25.12l0,0
	C251.88,167.567,240.633,156.32,226.76,156.32z"/>
<g>
	<path style="fill:#FFFFFF;" d="M291.16,278.72h41.76v41.76h-41.76V278.72z"/>
	<path style="fill:#FFFFFF;" d="M185.32,446v-80c0-18.32,18.56-33.2,41.44-33.2s41.44,14.88,41.44,33.2v80H185.32z"/>
	<path style="fill:#FFFFFF;" d="M291.16,356h41.76v41.76h-41.76V356z"/>
	<path style="fill:#FFFFFF;" d="M358.28,278.72h41.76v41.76h-41.76V278.72z"/>
	<path style="fill:#FFFFFF;" d="M53.48,356h41.76v41.76H53.48V356z"/>
	<path style="fill:#FFFFFF;" d="M120.6,356h41.76v41.76H120.6V356z"/>
</g>
<path style="fill:#FFECC7;" d="M260.92,80.16V62.08h25.12v-20h34.16l-6.96,19.04l6.96,19.04H260.92z"/>
<path style="fill:#F27668;" d="M268.2,446v-80c0-18.32-18.56-33.2-41.44-33.2s-41.44,14.88-41.44,33.2v80H28.12V230H425.4v216H268.2
	z M358.28,398h41.76v-42h-41.76V398z M291.16,398h41.76v-42h-41.76V398z M120.6,398h41.76v-42H120.6V398z M53.48,398h41.76v-42
	H53.48L53.48,398z M358.28,320.72h41.76v-42h-41.76V320.72z M291.16,320.72h41.76v-42h-41.76V320.72z M120.6,320.72h41.76v-42H120.6
	V320.72z M53.48,320.72h41.76v-42H53.48L53.48,320.72z M185.32,298.96h78.96v-42h-78.96V298.96z"/>
<path style="fill:#FFFFFF;" d="M53.48,278.72h41.76v41.76H53.48V278.72z"/>
<path style="fill:#FFECC7;" d="M226.76,24h59.28v38.08h-59.28V24z"/>
<g>
	<path style="fill:#42362C;" d="M432.84,227.68v-0.48l-23.68-48.24c-1.346-2.747-4.141-4.486-7.2-4.48h-93.04l-74.16-75.52V70.08
		h18.16v10.08c0,4.418,3.582,8,8,8h59.28c4.418-0.002,7.998-3.585,7.997-8.003c0-0.926-0.162-1.845-0.477-2.717l-6-16l6-16
		c1.502-4.155-0.648-8.741-4.803-10.243c-0.871-0.315-1.79-0.476-2.717-0.477h-26.16V24c0-4.418-3.582-8-8-8h-51.28V8
		c0-4.418-3.582-8-8-8s-8,3.582-8,8v90.96l-74.16,75.36H51.56c-3.059-0.006-5.854,1.733-7.2,4.48l-23.44,48.16v0.48
		c-0.282,0.771-0.444,1.58-0.48,2.4l0,0v216c0,4.418,3.582,8,8,8H425.4c4.418,0,8-3.582,8-8v-216l0,0
		C433.315,229.097,433.127,228.37,432.84,227.68L432.84,227.68z M294.04,62.08v-12h14.72l-3.04,8c-0.655,1.782-0.655,3.738,0,5.52
		l3.04,8h-40v-2.08h17.12C290.15,69.616,293.742,66.341,294.04,62.08z M234.76,32h43.28v22.08h-43.28V32z M56.52,190.24h91.44
		c2.138-0.009,4.183-0.873,5.68-2.4l73.12-74.32l73.12,74.32c1.497,1.527,3.542,2.391,5.68,2.4H397l16,32H40.84L56.52,190.24z
		 M260.2,438.24h-66.88v-72c0-13.92,14.96-25.2,33.44-25.2s33.44,11.28,33.44,25.2V438.24z M417.48,438.24H276.2v-72
		c0-22.72-22.16-41.2-49.44-41.2s-49.44,18.48-49.44,41.2v72H36.12v-200H417.4L417.48,438.24z"/>
	<path style="fill:#42362C;" d="M226.76,148.32c-18.292,0-33.12,14.828-33.12,33.12s14.828,33.12,33.12,33.12
		s33.12-14.828,33.12-33.12l0,0C259.88,163.148,245.052,148.32,226.76,148.32z M226.76,198.48c-9.455,0-17.12-7.665-17.12-17.12
		s7.665-17.12,17.12-17.12c9.455,0,17.12,7.665,17.12,17.12c0,0,0,0,0,0C243.88,190.815,236.215,198.48,226.76,198.48z"/>
	<path style="fill:#42362C;" d="M53.48,328.48h41.76c4.418,0,8-3.582,8-8v-41.76c0-4.418-3.582-8-8-8H53.48c-4.418,0-8,3.582-8,8
		v41.76C45.48,324.898,49.062,328.48,53.48,328.48z M61.48,286.72h25.76v25.76H61.48V286.72z"/>
	<path style="fill:#42362C;" d="M120.6,328.48h41.76c4.418,0,8-3.582,8-8v-41.76c0-4.418-3.582-8-8-8H120.6c-4.418,0-8,3.582-8,8
		v41.76C112.6,324.898,116.182,328.48,120.6,328.48z M128.6,286.72h25.76v25.76H128.6V286.72z"/>
	<path style="fill:#42362C;" d="M53.48,405.68h41.76c4.418,0,8-3.582,8-8V356c0-4.418-3.582-8-8-8H53.48c-4.418,0-8,3.582-8,8v41.76
		C45.524,402.147,49.093,405.68,53.48,405.68L53.48,405.68z M61.48,363.92h25.76v25.76H61.48V363.92z"/>
	<path style="fill:#42362C;" d="M120.6,405.68h41.76c4.418,0,8-3.582,8-8V356c0-4.418-3.582-8-8-8H120.6c-4.418,0-8,3.582-8,8v41.76
		C112.644,402.147,116.213,405.68,120.6,405.68L120.6,405.68z M128.6,363.92h25.76v25.76H128.6V363.92z"/>
	<path style="fill:#42362C;" d="M291.16,328.48h41.76c4.418,0,8-3.582,8-8v-41.76c0-4.418-3.582-8-8-8h-41.76c-4.418,0-8,3.582-8,8
		v41.76C283.16,324.898,286.742,328.48,291.16,328.48z M299.16,286.72h25.76v25.76h-25.76V286.72z"/>
	<path style="fill:#42362C;" d="M358.28,328.48h41.76c4.418,0,8-3.582,8-8v-41.76c0-4.418-3.582-8-8-8h-41.76c-4.418,0-8,3.582-8,8
		v41.76C350.28,324.898,353.862,328.48,358.28,328.48z M366.28,286.72h25.76v25.76h-25.76V286.72z"/>
	<path style="fill:#42362C;" d="M291.16,405.68h41.76c4.418,0,8-3.582,8-8V356c0-4.418-3.582-8-8-8h-41.76c-4.418,0-8,3.582-8,8
		v41.76C283.204,402.147,286.773,405.68,291.16,405.68L291.16,405.68z M299.16,363.92h25.76v25.76h-25.76V363.92z"/>
	<path style="fill:#42362C;" d="M358.28,405.68h41.76c4.418,0,8-3.582,8-8V356c0-4.418-3.582-8-8-8h-41.76c-4.418,0-8,3.582-8,8
		v41.76C350.324,402.147,353.893,405.68,358.28,405.68L358.28,405.68z M366.28,363.92h25.76v25.76h-25.76V363.92z"/>
	<path style="fill:#42362C;" d="M185.32,306.96h78.96c4.418,0,8-3.582,8-8v-42c0-4.418-3.582-8-8-8h-78.96c-4.418,0-8,3.582-8,8v42
		C177.32,303.378,180.902,306.96,185.32,306.96z M193.32,265.2h62.96v25.76h-62.96V265.2z"/>
</g>
<g>
</g>
<g>
</g>
<g>
</g>
<g>
</g>
<g>
</g>
<g>
</g>
<g>
</g>
<g>
</g>
<g>
</g>
<g>
</g>
<g>
</g>
<g>
</g>
<g>
</g>
<g>
</g>
<g>
</g>
</svg>
