<?xml version="1.0" encoding="iso-8859-1"?>
<!-- Generator: Adobe Illustrator 19.0.0, SVG Export Plug-In . SVG Version: 6.00 Build 0)  -->
<svg version="1.1" id="Capa_1" xmlns="http://www.w3.org/2000/svg" xmlns:xlink="http://www.w3.org/1999/xlink" x="0px" y="0px"
	 viewBox="0 0 456.8 456.8" style="enable-background:new 0 0 456.8 456.8;" xml:space="preserve">
<path style="fill:#6ED3BB;" d="M269.92,437.28v-94.56c0-4.418-3.582-8-8-8h-67.04c-4.418,0-8,3.582-8,8v94.56H38.32V284.4h380.16
	v152.88H269.92z M320.4,386h64v-64h-64V386z M72.4,386h64v-64h-64V386z"/>
<path style="fill:#F27668;" d="M5.2,284.56l24.64-63.76l0.72-7.2l7.28-0.08h387.92l1.2,7.28l24.64,63.76H5.2z"/>
<g>
	<path style="fill:#FFFFFF;" d="M196.4,120.08h64v64h-64V120.08z"/>
	<path style="fill:#FFFFFF;" d="M72.4,120.08h64v64h-64V120.08z"/>
	<path style="fill:#FFFFFF;" d="M320.4,322h64v64h-64V322z"/>
	<path style="fill:#FFFFFF;" d="M72.4,322h64v64h-64V322z"/>
</g>
<path style="fill:#FFECC7;" d="M186.88,334.72h83.04v102.56h-83.04L186.88,334.72z"/>
<path style="fill:#6ED3BB;" d="M38.32,213.52V90.56h380.16v122.96H38.32z M320.4,184.08h64v-64h-64V184.08z M196.4,184.08h64v-64
	h-64V184.08z M72.4,184.08h64v-64h-64V184.08z"/>
<path style="fill:#F27668;" d="M5.2,90.56L29.84,26.8l0.72-7.28h7.28h388.4l0.72,7.2l24.64,63.84H5.2z"/>
<path style="fill:#FFFFFF;" d="M320.4,120.08h64v64h-64V120.08z"/>
<g>
	<path style="fill:#42362C;" d="M441.52,98.56c8.439,0,15.28-6.841,15.28-15.28c-0.008-0.986-0.197-1.963-0.56-2.88l-21.36-55.36
		c-0.895-7.715-7.434-13.531-15.2-13.52H37.12c-7.766-0.011-14.305,5.805-15.2,13.52L0.56,80.32C0.197,81.237,0.008,82.214,0,83.2
		c0,8.439,6.841,15.28,15.28,15.28h15.04v108.8c-4.461,2.38-7.457,6.813-8,11.84L0.56,274.4c-0.363,0.917-0.552,1.894-0.56,2.88
		c0.088,8.376,6.903,15.12,15.28,15.12h15.04v144.88c0,4.418,3.582,8,8,8h380.16c4.418,0,8-3.582,8-8V292.4h15.04
		c8.439,0,15.28-6.841,15.28-15.28c-0.008-0.986-0.197-1.963-0.56-2.88l-21.44-55.36c-0.543-5.027-3.539-9.46-8-11.84V98.56
		L441.52,98.56z M194.88,429.28v-86.56h66.96v86.56H194.88z M410.88,429.28H277.92v-86.56c0-8.837-7.163-16-16-16h-67.04
		c-8.837,0-16,7.163-16,16v86.56H46.32V292.4h364.16L410.88,429.28z M439.92,276.4H16.88l20.48-52.88
		c0.259-0.694,0.421-1.421,0.48-2.16h381.12c0.059,0.739,0.221,1.466,0.48,2.16L439.92,276.4z M46.32,205.52V98.56h364.16v106.96
		H46.32z M418.48,82.56H16.88l20.4-52.88c0.259-0.694,0.421-1.421,0.48-2.16h381.2c0.059,0.739,0.221,1.466,0.48,2.16l20.48,52.88
		H418.48z"/>
	<path style="fill:#42362C;" d="M72.4,394h64c4.418,0,8-3.582,8-8v-64c0-4.418-3.582-8-8-8h-64c-4.418,0-8,3.582-8,8v64
		C64.4,390.418,67.982,394,72.4,394z M80.4,330h48v48h-48V330z"/>
	<path style="fill:#42362C;" d="M320.4,394h64c4.418,0,8-3.582,8-8v-64c0-4.418-3.582-8-8-8h-64c-4.418,0-8,3.582-8,8v64
		C312.4,390.418,315.982,394,320.4,394z M328.4,330h48v48h-48V330z"/>
	<path style="fill:#42362C;" d="M136.4,112.08h-64c-4.418,0-8,3.582-8,8v64c0,4.418,3.582,8,8,8h64c4.418,0,8-3.582,8-8v-64
		C144.4,115.662,140.818,112.08,136.4,112.08z M128.4,176.08h-48v-48h48V176.08z"/>
	<path style="fill:#42362C;" d="M384.4,112.08h-64c-4.418,0-8,3.582-8,8v64c0,4.418,3.582,8,8,8h64c4.418,0,8-3.582,8-8v-64
		C392.4,115.662,388.818,112.08,384.4,112.08z M376.4,176.08h-48v-48h48V176.08z"/>
	<path style="fill:#42362C;" d="M260.4,112.08h-64c-4.418,0-8,3.582-8,8v64c0,4.418,3.582,8,8,8h64c4.418,0,8-3.582,8-8v-64
		C268.4,115.662,264.818,112.08,260.4,112.08z M252.4,176.08h-48v-48h48V176.08z"/>
</g>
<g>
</g>
<g>
</g>
<g>
</g>
<g>
</g>
<g>
</g>
<g>
</g>
<g>
</g>
<g>
</g>
<g>
</g>
<g>
</g>
<g>
</g>
<g>
</g>
<g>
</g>
<g>
</g>
<g>
</g>
</svg>
