<?xml version="1.0" encoding="iso-8859-1"?>
<!-- Generator: Adobe Illustrator 19.0.0, SVG Export Plug-In . SVG Version: 6.00 Build 0)  -->
<svg version="1.1" id="Capa_1" xmlns="http://www.w3.org/2000/svg" xmlns:xlink="http://www.w3.org/1999/xlink" x="0px" y="0px"
	 viewBox="0 0 432.802 432.802" style="enable-background:new 0 0 432.802 432.802;" xml:space="preserve">
<g>
	<path style="fill:#FFECC7;" d="M148.364,416.161v-103.36h-77.36v103.36h-42.56v-275.36h166.8v275.36H148.364z"/>
	<path style="fill:#FFECC7;" d="M276.444,247.441l-32.32-37.6h96.4l27.2,37.6H276.444z"/>
</g>
<g>
	<path style="fill:#FFFFFF;" d="M71.004,312.801h77.36v103.36h-77.36L71.004,312.801z"/>
	<path style="fill:#FFFFFF;" d="M244.124,278.481v-68.64l32.32,37.6h64.08v31.04H244.124z"/>
</g>
<g>
	<path style="fill:#73D5D8;" d="M194.284,140.801l-88.96-124.16h230.72l88.96,124.16H194.284z"/>
	<path style="fill:#73D5D8;" d="M8.044,140.801l97.28-124.16l88.96,124.16H8.044z"/>
</g>
<path style="fill:#FFECC7;" d="M195.244,416.401v-275.6h209.36v275.6H195.244z M244.124,278.721h96.4v-31.28h27.12l-27.12-37.6
	h-96.4V278.721z"/>
<g>
	<path style="fill:#42362C;" d="M342.524,12.001c-1.44-2.189-3.861-3.534-6.48-3.6h-230.72c-1.078,0.027-2.139,0.272-3.12,0.72
		h-0.56c-0.917,0.479-1.732,1.131-2.4,1.92l-97.52,124.8c-2.739,3.467-2.15,8.497,1.317,11.237c1.424,1.125,3.188,1.733,5.003,1.723
		h12.4v267.6c0,4.418,3.582,8,8,8h376c4.418,0,8-3.582,8-8v-267.6h12.4c4.418-0.023,7.981-3.623,7.959-8.041
		c-0.008-1.55-0.466-3.064-1.319-4.359L342.524,12.001z M24.524,132.801l80.56-102.8l73.68,102.8H24.524z M140.364,408.401h-61.36
		v-88h61.28L140.364,408.401z M187.244,408.401h-30.88v-96c0-4.418-3.582-8-8-8h-77.36c-4.418,0-8,3.582-8,8v96h-26.56v-259.6h150.8
		V408.401z M396.604,408.401h-193.36v-259.6h193.36V408.401z M404.604,133.041h-206.24l-77.84-108.64h211.44l77.52,108.16
		L404.604,133.041z"/>
	<path style="fill:#42362C;" d="M127.644,178.161h39.76v16h-39.76V178.161z"/>
	<path style="fill:#42362C;" d="M52.044,178.161h39.76v16h-39.76L52.044,178.161z"/>
	<path style="fill:#42362C;" d="M127.644,239.441h39.76v16h-39.76V239.441z"/>
	<path style="fill:#42362C;" d="M52.044,239.441h39.76v16h-39.76L52.044,239.441z"/>
	<path style="fill:#42362C;" d="M244.124,286.481h96.4c4.418,0,8-3.582,8-8v-23.04h19.12c4.418,0.012,8.009-3.561,8.021-7.979
		c0.004-1.704-0.535-3.365-1.541-4.741l-27.12-37.6c-1.511-2.067-3.92-3.287-6.48-3.28h-96.4c-3.125-0.008-5.968,1.804-7.28,4.64
		c-0.453,1.061-0.671,2.207-0.64,3.36v68.64C236.203,282.868,239.737,286.437,244.124,286.481L244.124,286.481z M336.524,217.841
		l15.6,21.6h-71.6l-18.56-21.6H336.524z M252.124,231.441l18.32,21.28c1.52,1.777,3.741,2.8,6.08,2.8h56v15.04h-80.4V231.441z"/>
</g>
<g>
</g>
<g>
</g>
<g>
</g>
<g>
</g>
<g>
</g>
<g>
</g>
<g>
</g>
<g>
</g>
<g>
</g>
<g>
</g>
<g>
</g>
<g>
</g>
<g>
</g>
<g>
</g>
<g>
</g>
</svg>
