<?xml version="1.0" encoding="iso-8859-1"?>
<!-- Generator: Adobe Illustrator 19.0.0, SVG Export Plug-In . SVG Version: 6.00 Build 0)  -->
<svg version="1.1" id="Capa_1" xmlns="http://www.w3.org/2000/svg" xmlns:xlink="http://www.w3.org/1999/xlink" x="0px" y="0px"
	 viewBox="0 0 472 472" style="enable-background:new 0 0 472 472;" xml:space="preserve">
<path style="fill:#6ED3BB;" d="M125.76,464V202.96h279.12V464H125.76z"/>
<path style="fill:#73D5D8;" d="M67.12,464V8H340v194.96H125.76V464H67.12z"/>
<g>
	<path style="fill:#FFFFFF;" d="M265.28,374.16h87.68V464h-87.68V374.16z"/>
	<path style="fill:#FFFFFF;" d="M177.6,374.16h87.68V464H177.6V374.16z"/>
</g>
<g>
	<path style="fill:#FFECC7;" d="M302.56,230H348v45.44h-45.44V230z"/>
	<path style="fill:#FFECC7;" d="M119.68,124.16h45.44v45.44h-45.44V124.16z"/>
	<path style="fill:#FFECC7;" d="M302.56,303.84H348v45.44h-45.44V303.84z"/>
	<path style="fill:#FFECC7;" d="M239.68,41.76h45.44V87.2h-45.44V41.76z"/>
	<path style="fill:#FFECC7;" d="M239.68,124.16h45.44v45.44h-45.44V124.16z"/>
	<path style="fill:#FFECC7;" d="M119.68,41.76h45.44V87.2h-45.44V41.76z"/>
	<path style="fill:#FFECC7;" d="M182.56,303.84H228v45.44h-45.44V303.84z"/>
	<path style="fill:#FFECC7;" d="M182.56,230H228v45.44h-45.44V230z"/>
</g>
<g>
	<path style="fill:#42362C;" d="M404.88,194.96H348V8c0-4.418-3.582-8-8-8H67.12c-4.418,0-8,3.582-8,8v456c0,4.418,3.582,8,8,8
		h337.76c4.418,0,8-3.582,8-8V202.96C412.88,198.542,409.298,194.96,404.88,194.96L404.88,194.96z M117.76,202.96V456H75.12V16H332
		v178.96H125.76C121.342,194.96,117.76,198.542,117.76,202.96L117.76,202.96z M257.28,456h-72v-73.84h72V456z M345.28,456h-72
		v-73.84h72V456z M397.12,456h-36.08v-81.84c0-4.418-3.582-8-8-8H177.6c-4.418,0-8,3.582-8,8V456h-35.84V210.96h263.12L397.12,456z"
		/>
	<path style="fill:#42362C;" d="M285.2,33.76h-45.52c-4.418,0-8,3.582-8,8V87.2c0,4.418,3.582,8,8,8h45.44c4.418,0,8-3.582,8-8
		V41.76C293.12,37.373,289.587,33.804,285.2,33.76z M277.2,79.2h-29.52V49.76h29.44L277.2,79.2z"/>
	<path style="fill:#42362C;" d="M165.12,33.76h-45.44c-4.418,0-8,3.582-8,8V87.2c0,4.418,3.582,8,8,8h45.44c4.418,0,8-3.582,8-8
		V41.76C173.12,37.342,169.538,33.76,165.12,33.76z M157.12,79.2h-29.44V49.76h29.44V79.2z"/>
	<path style="fill:#42362C;" d="M285.2,116h-45.52c-4.418,0-8,3.582-8,8v45.6c0,4.418,3.582,8,8,8h45.44c4.418,0,8-3.582,8-8V124
		C293.12,119.613,289.587,116.044,285.2,116z M277.2,161.44h-29.52V132h29.44L277.2,161.44z"/>
	<path style="fill:#42362C;" d="M165.12,116h-45.44c-4.418,0-8,3.582-8,8v45.6c0,4.418,3.582,8,8,8h45.44c4.418,0,8-3.582,8-8V124
		C173.12,119.582,169.538,116,165.12,116z M157.12,161.44h-29.44V132h29.44V161.44z"/>
	<path style="fill:#42362C;" d="M302.56,283.44H348c4.418,0,8-3.582,8-8V230c0-4.418-3.582-8-8-8h-45.44c-4.418,0-8,3.582-8,8v45.44
		C294.56,279.858,298.142,283.44,302.56,283.44z M310.56,238H340v29.44h-29.44V238z"/>
	<path style="fill:#42362C;" d="M182.56,283.44H228c4.418,0,8-3.582,8-8V230c0-4.418-3.582-8-8-8h-45.44c-4.418,0-8,3.582-8,8v45.44
		C174.56,279.858,178.142,283.44,182.56,283.44z M190.56,238H220v29.44h-29.44V238z"/>
	<path style="fill:#42362C;" d="M302.56,357.28H348c4.418,0,8-3.582,8-8v-45.44c0-4.418-3.582-8-8-8h-45.44c-4.418,0-8,3.582-8,8
		v45.44C294.56,353.698,298.142,357.28,302.56,357.28z M310.56,311.84H340v29.44h-29.44V311.84z"/>
	<path style="fill:#42362C;" d="M182.56,357.28H228c4.418,0,8-3.582,8-8v-45.44c0-4.418-3.582-8-8-8h-45.44c-4.418,0-8,3.582-8,8
		v45.44C174.56,353.698,178.142,357.28,182.56,357.28z M190.56,311.84H220v29.44h-29.44V311.84z"/>
</g>
<g>
</g>
<g>
</g>
<g>
</g>
<g>
</g>
<g>
</g>
<g>
</g>
<g>
</g>
<g>
</g>
<g>
</g>
<g>
</g>
<g>
</g>
<g>
</g>
<g>
</g>
<g>
</g>
<g>
</g>
</svg>
