<?xml version="1.0"?>
<svg xmlns="http://www.w3.org/2000/svg" xmlns:xlink="http://www.w3.org/1999/xlink" xmlns:svgjs="http://svgjs.com/svgjs" version="1.1" width="512" height="512" x="0" y="0" viewBox="0 0 426.667 426.667" style="enable-background:new 0 0 512 512" xml:space="preserve" class=""><g transform="matrix(-1,0,0,1,426.6668281555176,0)">
<path xmlns="http://www.w3.org/2000/svg" style="" d="M385.061,164.374l-37.053-9.345l-80.944-47.565c-3.244-1.907-6.94-2.912-10.703-2.912H28.529  l9.74,6.199c0,0-41.621,23.025-28.337,94.755c0,0-31.881,49.592,18.597,58.447h362.715c19.483,0,35.423-15.94,35.423-35.422v-17.449  C426.667,187.208,410.345,169.367,385.061,164.374z" fill="#2d93ba" data-original="#2d93ba"/>
<path xmlns="http://www.w3.org/2000/svg" style="" d="M9.931,205.506c0,0-31.88,49.591,18.597,58.447h362.716c26.596-1.339,35.423-20.38,35.423-38.965  v-19.295H9.931c0,0-4.557-23.021-2.611-27.893h27.628l2.435,27.893H9.931" fill="#1c75a1" data-original="#1c75a1"/>
<path xmlns="http://www.w3.org/2000/svg" style="" d="M399.293,168.949l0.407,37.014l26.966-0.27C426.667,205.693,425.614,177.625,399.293,168.949z" fill="#d5d6db" data-original="#d5d6db"/>
<path xmlns="http://www.w3.org/2000/svg" style="" d="M9.489,181.783h20.368l2.657,19.925H12.588C12.588,201.708,8.16,192.631,9.489,181.783z" fill="#ce412d" data-original="#ce412d"/>
<circle xmlns="http://www.w3.org/2000/svg" style="" cx="94.848" cy="272.319" r="49.796" fill="#2f4859" data-original="#2f4859"/>
<circle xmlns="http://www.w3.org/2000/svg" style="" cx="94.848" cy="272.319" r="32.354" fill="#d5d6db" data-original="#d5d6db"/>
<g xmlns="http://www.w3.org/2000/svg">
	<circle style="" cx="94.848" cy="272.319" r="15.437" fill="#2f4859" data-original="#2f4859"/>
	<circle style="" cx="318.123" cy="272.319" r="49.796" fill="#2f4859" data-original="#2f4859"/>
</g>
<circle xmlns="http://www.w3.org/2000/svg" style="" cx="318.123" cy="272.319" r="32.354" fill="#d5d6db" data-original="#d5d6db"/>
<circle xmlns="http://www.w3.org/2000/svg" style="" cx="318.123" cy="272.319" r="15.437" fill="#2f4859" data-original="#2f4859"/>
<path xmlns="http://www.w3.org/2000/svg" style="" d="M34.948,177.8l-2.435-24.642H10.261c0,0-3.699,17.911-2.94,24.642H34.948z" fill="#fcd462" data-original="#fcd462"/>
<path xmlns="http://www.w3.org/2000/svg" style="" d="M12.578,159.432H27.42l1.936,14.52h-14.52C14.837,173.952,11.61,167.338,12.578,159.432z" fill="#ce412d" data-original="#ce412d"/>
<path xmlns="http://www.w3.org/2000/svg" style="" d="M404.503,178.26v22.553h16.716C421.218,200.813,420.095,185.372,404.503,178.26z" fill="#ffffff" data-original="#ffffff"/>
<path xmlns="http://www.w3.org/2000/svg" style="" d="M189.692,115.511h73.203l58.926,45.224c2.005,1.539,0.917,4.744-1.611,4.744H189.692V115.511z" fill="#e1e6e9" data-original="#e1e6e9"/>
<polygon xmlns="http://www.w3.org/2000/svg" style="" points="189.692,165.479 189.692,115.511 262.894,115.511 " fill="#ffffff" data-original="#ffffff"/>
<rect xmlns="http://www.w3.org/2000/svg" x="189.696" y="171.263" style="" width="33.463" height="10.5" fill="#3a556a" data-original="#3a556a"/>
<rect xmlns="http://www.w3.org/2000/svg" x="195.972" y="173.256" style="" width="20.898" height="6.558" fill="#2f4859" data-original="#2f4859"/>
<g xmlns="http://www.w3.org/2000/svg">
</g>
<g xmlns="http://www.w3.org/2000/svg">
</g>
<g xmlns="http://www.w3.org/2000/svg">
</g>
<g xmlns="http://www.w3.org/2000/svg">
</g>
<g xmlns="http://www.w3.org/2000/svg">
</g>
<g xmlns="http://www.w3.org/2000/svg">
</g>
<g xmlns="http://www.w3.org/2000/svg">
</g>
<g xmlns="http://www.w3.org/2000/svg">
</g>
<g xmlns="http://www.w3.org/2000/svg">
</g>
<g xmlns="http://www.w3.org/2000/svg">
</g>
<g xmlns="http://www.w3.org/2000/svg">
</g>
<g xmlns="http://www.w3.org/2000/svg">
</g>
<g xmlns="http://www.w3.org/2000/svg">
</g>
<g xmlns="http://www.w3.org/2000/svg">
</g>
<g xmlns="http://www.w3.org/2000/svg">
</g>
</g></svg>
