<svg xmlns="http://www.w3.org/2000/svg" height="659.363pt" version="1.1" viewBox="0 0 659.363 659.363" width="659.363pt">
<g id="surface1">
<path d="M 314.523438 539.183594 C 310.550781 539.1875 306.738281 537.609375 303.933594 534.792969 L 244.023438 474.886719 C 238.179688 469.035156 238.183594 459.550781 244.035156 453.707031 C 249.878906 447.863281 259.355469 447.863281 265.203125 453.707031 L 325.113281 513.617188 C 330.960938 519.464844 330.960938 528.949219 325.109375 534.796875 C 322.300781 537.605469 318.492188 539.183594 314.523438 539.183594 Z M 314.523438 539.183594 " style=" stroke:none;fill-rule:nonzero;fill:rgb(46.666667%,30.196078%,100%);fill-opacity:1;" />
<path d="M 329.496094 119.820312 L 389.40625 59.910156 L 419.359375 89.867188 L 359.453125 149.773438 Z M 329.496094 119.820312 " style=" stroke:none;fill-rule:nonzero;fill:rgb(100%,50.588235%,19.607843%);fill-opacity:1;" />
<path d="M 274.472656 404.109375 L 329.5 329.5 L 239.636719 299.546875 L 269.589844 209.683594 L 366.921875 267.359375 C 390.054688 285.863281 396.1875 318.5 381.351562 344.144531 L 322.863281 436.367188 C 313.953125 449.730469 295.902344 453.339844 282.539062 444.433594 C 278.328125 441.625 274.921875 437.769531 272.660156 433.242188 C 267.996094 423.910156 268.6875 412.792969 274.472656 404.109375 Z M 274.472656 404.109375 " style=" stroke:none;fill-rule:nonzero;fill:rgb(100%,50.588235%,19.607843%);fill-opacity:1;" />
<path d="M 269.589844 419.363281 L 298.222656 419.363281 C 309.492188 419.363281 319.496094 426.574219 323.058594 437.265625 L 341.929688 493.875 C 345.066406 503.285156 342.617188 513.65625 335.605469 520.667969 C 325.382812 530.894531 308.804688 530.894531 298.578125 520.667969 L 248.410156 470.5 C 236.714844 458.800781 236.714844 439.835938 248.410156 428.136719 C 254.027344 422.519531 261.644531 419.363281 269.589844 419.363281 Z M 269.589844 419.363281 " style=" stroke:none;fill-rule:nonzero;fill:rgb(5.490196%,53.72549%,0%);fill-opacity:1;" />
<path d="M 254.613281 419.363281 L 284.570312 419.363281 C 292.839844 419.363281 299.546875 426.070312 299.546875 434.339844 C 299.546875 442.613281 292.839844 449.320312 284.570312 449.320312 L 254.613281 449.320312 C 246.34375 449.320312 239.636719 442.613281 239.636719 434.339844 C 239.636719 426.070312 246.339844 419.363281 254.613281 419.363281 Z M 254.613281 419.363281 " style=" stroke:none;fill-rule:nonzero;fill:rgb(5.098039%,62.352941%,0%);fill-opacity:1;" />
<path d="M 314.523438 359.453125 C 322.792969 359.453125 329.5 366.160156 329.5 374.433594 L 329.5 404.386719 C 329.5 412.660156 322.796875 419.363281 314.523438 419.363281 C 306.25 419.363281 299.546875 412.660156 299.546875 404.386719 L 299.546875 374.433594 C 299.546875 366.160156 306.25 359.453125 314.523438 359.453125 Z M 314.523438 359.453125 " style=" stroke:none;fill-rule:nonzero;fill:rgb(92.54902%,34.901961%,3.921569%);fill-opacity:1;" />
<path d="M 598.335938 450.074219 L 524.203125 524.203125 L 598.335938 598.335938 C 639.277344 557.398438 639.28125 491.023438 598.347656 450.082031 C 598.34375 450.078125 598.339844 450.074219 598.335938 450.074219 Z M 598.335938 450.074219 " style=" stroke:none;fill-rule:nonzero;fill:rgb(94.509804%,92.54902%,100%);fill-opacity:1;" />
<path d="M 208.925781 450.074219 L 134.796875 524.203125 L 208.925781 598.335938 C 249.867188 557.398438 249.875 491.023438 208.9375 450.082031 C 208.933594 450.078125 208.929688 450.078125 208.925781 450.074219 Z M 208.925781 450.074219 " style=" stroke:none;fill-rule:nonzero;fill:rgb(94.509804%,92.54902%,100%);fill-opacity:1;" />
<path d="M 134.796875 419.363281 C 192.699219 419.363281 239.636719 466.304688 239.636719 524.203125 C 239.636719 582.105469 192.695312 629.046875 134.796875 629.046875 C 76.894531 629.046875 29.953125 582.105469 29.953125 524.203125 C 30.019531 466.328125 76.921875 419.429688 134.796875 419.363281 M 134.796875 389.410156 C 60.351562 389.410156 0 449.757812 0 524.203125 C 0 598.652344 60.351562 659 134.796875 659 C 209.242188 659 269.59375 598.652344 269.59375 524.203125 C 269.589844 449.757812 209.242188 389.410156 134.796875 389.410156 Z M 134.796875 389.410156 " style=" stroke:none;fill-rule:nonzero;fill:rgb(28.235294%,5.882353%,92.941176%);fill-opacity:1;" />
<path d="M 179.726562 524.203125 C 179.726562 549.019531 159.613281 569.136719 134.796875 569.136719 C 109.980469 569.136719 89.863281 549.019531 89.863281 524.203125 C 89.863281 499.390625 109.980469 479.273438 134.796875 479.273438 C 159.613281 479.273438 179.726562 499.390625 179.726562 524.203125 Z M 179.726562 524.203125 " style=" stroke:none;fill-rule:nonzero;fill:rgb(81.960784%,76.078431%,100%);fill-opacity:1;" />
<path d="M 524.203125 419.363281 C 582.105469 419.363281 629.046875 466.304688 629.046875 524.203125 C 629.046875 582.105469 582.105469 629.046875 524.203125 629.046875 C 466.304688 629.046875 419.363281 582.105469 419.363281 524.203125 C 419.429688 466.328125 466.328125 419.429688 524.203125 419.363281 M 524.203125 389.410156 C 449.761719 389.410156 389.410156 449.757812 389.410156 524.203125 C 389.410156 598.652344 449.757812 659 524.203125 659 C 598.652344 659 659 598.652344 659 524.203125 C 659 449.757812 598.648438 389.410156 524.203125 389.410156 Z M 524.203125 389.410156 " style=" stroke:none;fill-rule:nonzero;fill:rgb(28.235294%,5.882353%,92.941176%);fill-opacity:1;" />
<path d="M 569.136719 524.203125 C 569.136719 549.019531 549.019531 569.136719 524.203125 569.136719 C 499.390625 569.136719 479.273438 549.019531 479.273438 524.203125 C 479.273438 499.390625 499.390625 479.273438 524.203125 479.273438 C 549.019531 479.273438 569.136719 499.390625 569.136719 524.203125 Z M 569.136719 524.203125 " style=" stroke:none;fill-rule:nonzero;fill:rgb(81.960784%,76.078431%,100%);fill-opacity:1;" />
<path d="M 314.523438 569.136719 C 308.078125 569.128906 302.355469 565.007812 300.304688 558.898438 L 210.441406 289.308594 C 207.832031 281.453125 212.082031 272.96875 219.933594 270.359375 C 227.78125 267.75 236.253906 271.988281 238.875 279.828125 L 328.738281 549.421875 C 331.34375 557.28125 327.082031 565.769531 319.21875 568.375 C 317.703125 568.878906 316.121094 569.132812 314.523438 569.136719 Z M 314.523438 569.136719 " style=" stroke:none;fill-rule:nonzero;fill:rgb(100%,41.176471%,4.313725%);fill-opacity:1;" />
<path d="M 344.476562 539.183594 L 134.796875 539.183594 C 126.523438 539.183594 119.8125 532.476562 119.8125 524.203125 C 119.8125 520.800781 120.96875 517.5 123.09375 514.84375 L 242.914062 365.070312 C 245.296875 362.097656 248.722656 360.144531 252.492188 359.601562 L 462.175781 329.644531 C 470.367188 328.480469 477.953125 334.175781 479.117188 342.367188 C 479.636719 346.011719 478.796875 349.722656 476.757812 352.785156 L 356.9375 532.511719 C 354.160156 536.679688 349.484375 539.179688 344.476562 539.183594 Z M 165.964844 509.226562 L 336.460938 509.226562 L 433.257812 364.046875 L 262.601562 388.414062 Z M 165.964844 509.226562 " style=" stroke:none;fill-rule:nonzero;fill:rgb(100%,41.176471%,4.313725%);fill-opacity:1;" />
<path d="M 344.476562 539.183594 L 254.613281 539.183594 C 246.34375 539.183594 239.636719 532.476562 239.636719 524.203125 C 239.636719 515.929688 246.339844 509.226562 254.613281 509.226562 L 344.476562 509.226562 C 352.75 509.226562 359.457031 515.929688 359.457031 524.203125 C 359.457031 532.476562 352.75 539.183594 344.476562 539.183594 Z M 344.476562 539.183594 " style=" stroke:none;fill-rule:nonzero;fill:rgb(82.745098%,25.098039%,0%);fill-opacity:1;" />
<path d="M 299.53125 382.988281 C 291.257812 382.980469 284.558594 376.269531 284.5625 367.996094 C 284.570312 360.546875 290.046875 354.234375 297.421875 353.179688 L 341.828125 346.832031 C 350.019531 345.65625 357.613281 351.34375 358.789062 359.53125 C 359.964844 367.722656 354.28125 375.316406 346.089844 376.492188 C 346.082031 376.492188 346.078125 376.496094 346.070312 376.496094 L 301.664062 382.84375 C 300.957031 382.941406 300.246094 382.988281 299.53125 382.988281 Z M 299.53125 382.988281 " style=" stroke:none;fill-rule:nonzero;fill:rgb(82.745098%,25.098039%,0%);fill-opacity:1;" />
<path d="M 314.507812 569.136719 C 306.234375 569.125 299.539062 562.40625 299.550781 554.132812 C 299.558594 551.023438 300.53125 547.988281 302.339844 545.457031 L 337.425781 496.339844 C 342.238281 489.613281 351.589844 488.0625 358.316406 492.871094 C 365.039062 497.679688 366.59375 507.019531 361.796875 513.746094 L 326.707031 562.863281 C 323.898438 566.808594 319.351562 569.144531 314.507812 569.136719 Z M 314.507812 569.136719 " style=" stroke:none;fill-rule:nonzero;fill:rgb(82.745098%,25.098039%,0%);fill-opacity:1;" />
<path d="M 314.523438 569.136719 C 308.078125 569.128906 302.355469 565.007812 300.304688 558.898438 L 270.351562 469.035156 C 267.738281 461.179688 271.992188 452.699219 279.84375 450.085938 C 287.6875 447.476562 296.164062 451.714844 298.785156 459.554688 L 328.738281 549.421875 C 331.34375 557.28125 327.082031 565.769531 319.21875 568.375 C 317.703125 568.878906 316.121094 569.132812 314.523438 569.136719 Z M 314.523438 569.136719 " style=" stroke:none;fill-rule:nonzero;fill:rgb(82.745098%,25.098039%,0%);fill-opacity:1;" />
<path d="M 244.890625 360.1875 C 238.445312 360.179688 232.726562 356.058594 230.675781 349.949219 L 210.441406 289.308594 C 207.832031 281.453125 212.082031 272.96875 219.933594 270.359375 C 227.78125 267.75 236.253906 271.988281 238.875 279.828125 L 259.109375 340.46875 C 261.714844 348.332031 257.453125 356.820312 249.589844 359.425781 C 248.074219 359.925781 246.488281 360.183594 244.890625 360.1875 Z M 244.890625 360.1875 " style=" stroke:none;fill-rule:nonzero;fill:rgb(89.411765%,85.882353%,100%);fill-opacity:1;" />
<path d="M 239.636719 314.523438 C 239.636719 322.796875 232.929688 329.5 224.660156 329.5 C 216.386719 329.5 209.683594 322.796875 209.683594 314.523438 C 209.683594 306.25 216.386719 299.546875 224.660156 299.546875 C 232.929688 299.546875 239.636719 306.25 239.636719 314.523438 Z M 239.636719 314.523438 " style=" stroke:none;fill-rule:nonzero;fill:rgb(67.45098%,57.647059%,100%);fill-opacity:1;" />
<path d="M 149.773438 299.546875 C 149.773438 299.546875 149.773438 329.5 179.726562 329.5 C 209.683594 329.5 247.125 299.546875 277.078125 299.546875 C 307.035156 299.546875 307.035156 269.589844 277.078125 269.589844 L 179.726562 269.589844 C 149.773438 269.589844 149.773438 299.546875 149.773438 299.546875 Z M 149.773438 299.546875 " style=" stroke:none;fill-rule:nonzero;fill:rgb(28.235294%,5.882353%,92.941176%);fill-opacity:1;" />
<path d="M 569.136719 269.589844 L 494.25 269.589844 C 485.980469 269.589844 479.273438 276.296875 479.273438 284.570312 C 479.273438 292.839844 485.976562 299.546875 494.25 299.546875 L 569.136719 299.546875 C 585.679688 299.546875 599.09375 312.957031 599.09375 329.5 C 599.09375 346.042969 585.679688 359.457031 569.136719 359.457031 L 554.160156 359.457031 C 545.886719 359.457031 539.183594 366.160156 539.183594 374.433594 C 539.183594 382.703125 545.886719 389.410156 554.160156 389.410156 L 569.136719 389.410156 C 602.222656 389.410156 629.046875 362.589844 629.046875 329.503906 C 629.046875 296.414062 602.222656 269.589844 569.136719 269.589844 Z M 569.136719 269.589844 " style=" stroke:none;fill-rule:nonzero;fill:rgb(28.235294%,5.882353%,92.941176%);fill-opacity:1;" />
<path d="M 524.203125 269.589844 L 554.160156 269.589844 C 562.429688 269.589844 569.136719 276.296875 569.136719 284.570312 C 569.136719 292.839844 562.429688 299.546875 554.160156 299.546875 L 524.203125 299.546875 C 515.933594 299.546875 509.226562 292.839844 509.226562 284.570312 C 509.226562 276.296875 515.933594 269.589844 524.203125 269.589844 Z M 524.203125 269.589844 " style=" stroke:none;fill-rule:nonzero;fill:rgb(7.45098%,0%,62.745098%);fill-opacity:1;" />
<path d="M 359.457031 524.203125 C 359.457031 549.019531 339.339844 569.136719 314.523438 569.136719 C 289.707031 569.136719 269.589844 549.019531 269.589844 524.203125 C 269.589844 499.390625 289.707031 479.273438 314.523438 479.273438 C 339.339844 479.273438 359.457031 499.390625 359.457031 524.203125 Z M 359.457031 524.203125 " style=" stroke:none;fill-rule:nonzero;fill:rgb(28.235294%,5.882353%,92.941176%);fill-opacity:1;" />
<path d="M 282.75 555.976562 L 282.816406 556.039062 L 282.835938 556.0625 L 282.902344 556.128906 L 282.964844 556.1875 L 282.988281 556.214844 L 283.027344 556.25 L 283.058594 556.28125 L 283.09375 556.3125 L 283.148438 556.371094 L 283.171875 556.394531 L 283.214844 556.433594 L 283.226562 556.445312 C 283.273438 556.492188 283.324219 556.539062 283.371094 556.585938 L 283.378906 556.589844 C 283.480469 556.691406 283.582031 556.789062 283.6875 556.886719 L 283.742188 556.941406 L 283.828125 557.019531 L 283.847656 557.039062 L 283.882812 557.070312 L 283.921875 557.109375 C 284.128906 557.300781 284.339844 557.492188 284.546875 557.683594 C 284.617188 557.742188 284.6875 557.800781 284.757812 557.859375 C 284.890625 557.980469 285.023438 558.101562 285.164062 558.222656 C 290.121094 562.519531 295.96875 565.667969 302.28125 567.449219 L 302.285156 567.449219 C 302.65625 567.554688 303.03125 567.652344 303.40625 567.75 L 303.414062 567.75 L 303.46875 567.765625 L 303.472656 567.765625 L 303.53125 567.78125 L 303.539062 567.78125 L 303.59375 567.796875 L 303.601562 567.796875 L 303.65625 567.8125 L 303.667969 567.8125 L 303.71875 567.828125 L 303.730469 567.832031 L 303.78125 567.84375 L 303.792969 567.847656 L 303.847656 567.859375 L 303.851562 567.859375 L 303.90625 567.875 L 303.921875 567.878906 L 303.976562 567.890625 L 304.035156 567.90625 L 304.042969 567.90625 C 304.25 567.957031 304.453125 568.003906 304.664062 568.050781 L 304.667969 568.050781 L 304.722656 568.0625 L 304.734375 568.066406 L 304.78125 568.078125 L 304.800781 568.082031 L 304.863281 568.097656 L 304.910156 568.105469 L 304.929688 568.109375 L 304.992188 568.125 L 305.039062 568.132812 L 305.058594 568.136719 L 305.101562 568.148438 L 305.121094 568.152344 L 305.167969 568.160156 L 305.1875 568.164062 L 305.230469 568.175781 L 305.253906 568.179688 L 305.292969 568.1875 L 305.316406 568.191406 L 305.359375 568.199219 L 305.375 568.203125 L 305.425781 568.214844 L 305.4375 568.21875 L 305.488281 568.226562 L 305.503906 568.230469 L 305.550781 568.238281 L 305.566406 568.242188 L 305.617188 568.253906 L 305.621094 568.253906 C 305.746094 568.28125 305.867188 568.304688 305.992188 568.328125 L 305.996094 568.328125 L 306.046875 568.335938 L 306.0625 568.34375 L 306.109375 568.351562 L 306.128906 568.355469 L 306.171875 568.363281 L 306.191406 568.367188 L 306.234375 568.375 L 306.257812 568.378906 L 306.296875 568.386719 L 306.328125 568.390625 L 306.359375 568.398438 L 306.390625 568.402344 L 306.425781 568.410156 L 306.453125 568.414062 L 306.496094 568.421875 L 306.515625 568.425781 L 306.558594 568.433594 L 306.582031 568.4375 L 306.621094 568.445312 L 306.648438 568.449219 L 306.6875 568.457031 L 306.710938 568.460938 L 306.753906 568.46875 L 306.78125 568.472656 L 306.8125 568.480469 L 306.847656 568.484375 L 306.878906 568.492188 L 306.910156 568.496094 L 306.945312 568.5 L 306.972656 568.507812 L 307.011719 568.511719 L 307.039062 568.519531 L 307.074219 568.523438 L 307.113281 568.53125 L 307.140625 568.535156 L 307.269531 568.554688 L 307.28125 568.558594 L 307.339844 568.566406 L 307.34375 568.566406 L 307.402344 568.578125 L 307.425781 568.578125 L 307.46875 568.585938 L 307.5 568.589844 L 307.53125 568.597656 L 307.5625 568.601562 L 307.621094 568.613281 L 307.664062 568.617188 L 307.6875 568.621094 L 307.730469 568.628906 L 307.753906 568.632812 L 307.796875 568.636719 L 307.816406 568.640625 L 307.867188 568.648438 L 307.882812 568.652344 L 307.929688 568.660156 L 307.949219 568.660156 L 307.992188 568.667969 L 308.019531 568.671875 L 308.054688 568.675781 L 308.082031 568.679688 L 308.125 568.6875 L 308.148438 568.691406 L 308.191406 568.695312 L 308.214844 568.699219 L 308.257812 568.707031 L 308.28125 568.707031 L 308.328125 568.714844 L 308.34375 568.71875 L 308.402344 568.726562 L 308.410156 568.726562 L 308.476562 568.734375 C 308.609375 568.753906 308.742188 568.773438 308.875 568.789062 L 308.878906 568.789062 L 308.941406 568.796875 L 308.949219 568.796875 L 309.007812 568.804688 L 309.023438 568.804688 L 309.074219 568.8125 L 309.089844 568.816406 L 309.136719 568.820312 L 309.160156 568.824219 L 309.207031 568.828125 L 309.222656 568.828125 L 309.273438 568.835938 L 309.289062 568.835938 L 309.339844 568.84375 L 309.355469 568.84375 L 309.402344 568.847656 L 309.421875 568.851562 L 309.472656 568.859375 L 309.484375 568.859375 L 309.535156 568.867188 L 309.554688 568.867188 L 309.605469 568.875 L 309.617188 568.875 L 309.667969 568.878906 L 309.6875 568.882812 L 309.742188 568.886719 L 309.75 568.886719 L 309.8125 568.894531 L 309.816406 568.894531 C 309.949219 568.910156 310.082031 568.921875 310.21875 568.933594 L 310.226562 568.933594 L 310.285156 568.941406 L 310.289062 568.941406 L 310.351562 568.949219 L 310.359375 568.949219 L 310.417969 568.953125 L 310.425781 568.953125 L 310.484375 568.957031 L 310.5 568.960938 L 310.550781 568.964844 L 310.5625 568.964844 L 310.617188 568.96875 L 310.628906 568.972656 L 310.683594 568.976562 L 310.695312 568.976562 L 310.746094 568.984375 L 310.765625 568.984375 L 310.816406 568.988281 L 310.828125 568.988281 L 310.882812 568.992188 L 310.894531 568.996094 L 310.953125 569 L 310.960938 569 L 311.015625 569.003906 L 311.03125 569.003906 L 311.085938 569.007812 L 311.09375 569.011719 L 311.15625 569.015625 L 311.160156 569.015625 L 311.226562 569.019531 L 311.289062 569.023438 L 311.296875 569.023438 C 311.539062 569.042969 311.785156 569.058594 312.035156 569.070312 L 312.097656 569.074219 L 312.105469 569.074219 L 312.164062 569.078125 L 312.171875 569.078125 L 312.230469 569.082031 L 312.242188 569.082031 L 312.296875 569.085938 L 312.375 569.085938 L 312.433594 569.089844 L 312.4375 569.089844 L 312.503906 569.09375 L 312.507812 569.09375 C 312.550781 569.09375 312.59375 569.097656 312.640625 569.097656 C 312.886719 569.109375 313.132812 569.117188 313.378906 569.125 L 313.453125 569.125 L 313.515625 569.128906 L 313.585938 569.128906 L 313.648438 569.132812 L 313.71875 569.132812 C 319.050781 569.230469 324.355469 568.378906 329.390625 566.621094 C 329.734375 566.5 330.074219 566.375 330.417969 566.246094 L 330.542969 566.199219 L 330.546875 566.199219 L 330.671875 566.152344 L 330.675781 566.148438 L 330.734375 566.128906 L 330.796875 566.101562 L 330.800781 566.101562 C 330.84375 566.085938 330.882812 566.070312 330.925781 566.054688 L 330.925781 566.050781 C 331.222656 565.9375 331.519531 565.816406 331.8125 565.695312 L 331.816406 565.695312 L 331.878906 565.667969 L 331.9375 565.640625 L 331.945312 565.640625 C 331.964844 565.632812 331.984375 565.625 332.003906 565.617188 L 332.191406 565.535156 C 332.527344 565.390625 332.863281 565.246094 333.195312 565.09375 L 333.199219 565.089844 L 333.257812 565.066406 L 333.261719 565.0625 L 333.316406 565.035156 L 333.324219 565.035156 L 333.378906 565.007812 L 333.390625 565.003906 L 333.4375 564.980469 L 333.453125 564.976562 L 333.503906 564.953125 L 333.511719 564.945312 L 333.570312 564.921875 L 333.570312 564.917969 C 333.613281 564.898438 333.652344 564.878906 333.695312 564.863281 C 333.921875 564.753906 334.148438 564.644531 334.375 564.535156 L 334.378906 564.53125 L 334.433594 564.503906 L 334.445312 564.5 L 334.5 564.472656 L 334.503906 564.472656 L 334.558594 564.441406 L 334.5625 564.441406 L 334.621094 564.410156 L 334.625 564.410156 L 334.804688 564.320312 L 334.808594 564.316406 L 334.867188 564.285156 L 334.871094 564.285156 L 334.933594 564.253906 C 334.972656 564.234375 335.015625 564.214844 335.054688 564.191406 C 335.257812 564.089844 335.460938 563.980469 335.664062 563.875 L 335.667969 563.871094 L 335.785156 563.808594 L 335.789062 563.804688 L 335.90625 563.742188 L 335.914062 563.742188 L 335.96875 563.710938 L 336.027344 563.675781 L 336.03125 563.675781 L 336.089844 563.644531 L 336.09375 563.640625 L 336.144531 563.613281 L 336.15625 563.605469 L 336.210938 563.578125 L 336.214844 563.574219 L 336.277344 563.542969 L 336.332031 563.511719 L 336.335938 563.507812 L 336.390625 563.476562 L 336.394531 563.476562 L 336.457031 563.441406 C 336.617188 563.351562 336.777344 563.261719 336.9375 563.167969 L 336.941406 563.164062 L 336.992188 563.136719 L 337.003906 563.128906 L 337.054688 563.101562 L 337.066406 563.09375 L 337.109375 563.066406 L 337.128906 563.058594 L 337.34375 562.929688 L 337.367188 562.917969 L 337.402344 562.894531 L 337.460938 562.859375 L 337.484375 562.847656 L 337.523438 562.824219 L 337.539062 562.8125 L 337.582031 562.789062 L 337.597656 562.777344 L 337.644531 562.75 L 337.65625 562.742188 L 337.707031 562.714844 L 337.714844 562.707031 L 337.773438 562.671875 L 337.824219 562.640625 L 337.832031 562.636719 C 337.914062 562.589844 337.988281 562.539062 338.066406 562.492188 L 338.078125 562.484375 L 338.128906 562.457031 L 338.136719 562.449219 L 338.183594 562.421875 L 338.199219 562.410156 L 338.246094 562.382812 L 338.261719 562.371094 L 338.300781 562.347656 L 338.324219 562.332031 L 338.359375 562.3125 L 338.417969 562.273438 L 338.476562 562.238281 L 338.496094 562.222656 L 338.53125 562.203125 L 338.558594 562.1875 L 338.59375 562.164062 L 338.613281 562.148438 L 338.671875 562.113281 L 338.710938 562.085938 L 338.730469 562.074219 L 338.824219 562.011719 L 338.84375 562 L 338.886719 561.972656 L 338.902344 561.964844 L 338.945312 561.933594 L 338.957031 561.925781 L 339 561.898438 L 339.015625 561.886719 L 339.066406 561.855469 L 339.074219 561.851562 C 339.152344 561.800781 339.226562 561.75 339.304688 561.699219 L 339.3125 561.695312 L 339.363281 561.660156 L 339.371094 561.65625 L 339.417969 561.621094 L 339.476562 561.582031 L 339.492188 561.574219 L 339.535156 561.542969 L 339.605469 561.496094 L 339.648438 561.46875 L 339.667969 561.457031 L 339.707031 561.429688 L 339.722656 561.417969 L 339.761719 561.390625 L 339.78125 561.378906 L 339.820312 561.351562 L 339.839844 561.339844 L 339.878906 561.3125 L 339.894531 561.300781 L 339.9375 561.273438 L 339.953125 561.261719 L 339.996094 561.234375 L 340.007812 561.222656 L 340.050781 561.195312 L 340.066406 561.183594 L 340.105469 561.15625 L 340.125 561.144531 L 340.160156 561.117188 L 340.183594 561.101562 L 340.222656 561.074219 L 340.238281 561.066406 L 340.277344 561.035156 L 340.296875 561.023438 C 340.386719 560.957031 340.484375 560.890625 340.578125 560.824219 L 340.597656 560.808594 L 340.632812 560.785156 L 340.652344 560.769531 L 340.6875 560.742188 L 340.707031 560.730469 L 340.746094 560.703125 L 340.765625 560.6875 L 340.800781 560.664062 L 340.820312 560.648438 L 340.855469 560.621094 L 340.914062 560.582031 L 340.933594 560.566406 L 340.96875 560.542969 L 340.992188 560.523438 L 341.023438 560.5 L 341.046875 560.484375 L 341.078125 560.460938 L 341.101562 560.441406 L 341.136719 560.417969 L 341.15625 560.402344 L 341.191406 560.375 L 341.210938 560.359375 L 341.25 560.332031 L 341.269531 560.320312 L 341.308594 560.292969 L 341.324219 560.277344 L 341.363281 560.25 L 341.378906 560.234375 L 341.417969 560.210938 L 341.476562 560.164062 L 341.492188 560.152344 L 341.53125 560.121094 L 341.546875 560.109375 C 341.621094 560.054688 341.695312 559.996094 341.769531 559.941406 L 341.78125 559.929688 L 341.824219 559.898438 L 341.84375 559.882812 L 341.878906 559.859375 L 341.898438 559.839844 L 341.933594 559.816406 L 341.953125 559.800781 L 341.988281 559.773438 L 342.011719 559.753906 L 342.042969 559.730469 L 342.066406 559.714844 L 342.097656 559.6875 L 342.121094 559.671875 L 342.15625 559.644531 L 342.175781 559.628906 L 342.210938 559.601562 L 342.230469 559.585938 L 342.265625 559.558594 L 342.285156 559.542969 L 342.320312 559.515625 L 342.339844 559.5 L 342.375 559.472656 L 342.394531 559.457031 L 342.429688 559.433594 L 342.449219 559.414062 L 342.484375 559.386719 L 342.542969 559.339844 L 342.558594 559.328125 L 342.601562 559.292969 L 342.609375 559.285156 L 342.652344 559.253906 L 342.667969 559.238281 L 342.707031 559.207031 L 342.722656 559.195312 L 342.757812 559.167969 L 342.777344 559.152344 L 342.820312 559.117188 L 342.828125 559.109375 C 342.84375 559.097656 342.863281 559.085938 342.875 559.074219 L 342.898438 559.054688 L 342.9375 559.019531 L 342.949219 559.011719 L 342.992188 558.976562 L 343.007812 558.964844 L 343.046875 558.933594 L 343.058594 558.921875 L 343.097656 558.890625 L 343.121094 558.871094 L 343.152344 558.84375 L 343.175781 558.828125 L 343.207031 558.800781 L 343.226562 558.78125 L 343.261719 558.757812 L 343.285156 558.738281 L 343.3125 558.710938 L 343.339844 558.691406 L 343.371094 558.667969 L 343.390625 558.648438 L 343.421875 558.621094 L 343.445312 558.601562 L 343.476562 558.574219 L 343.5 558.558594 L 343.527344 558.53125 L 343.550781 558.511719 L 343.582031 558.484375 L 343.605469 558.464844 L 343.632812 558.441406 L 343.65625 558.421875 L 343.6875 558.394531 L 343.710938 558.375 L 343.738281 558.347656 L 343.761719 558.328125 L 343.796875 558.300781 L 343.816406 558.285156 L 343.851562 558.253906 L 343.867188 558.238281 L 343.90625 558.207031 L 343.921875 558.191406 L 343.960938 558.15625 L 343.976562 558.144531 L 344.023438 558.101562 L 344.027344 558.097656 L 344.082031 558.050781 L 344.085938 558.046875 L 344.132812 558.007812 L 344.214844 557.9375 L 344.261719 557.890625 L 344.292969 557.867188 L 344.3125 557.847656 L 344.347656 557.816406 L 344.367188 557.800781 L 344.398438 557.773438 L 344.421875 557.75 L 344.449219 557.726562 L 344.472656 557.703125 L 344.503906 557.679688 L 344.527344 557.65625 L 344.582031 557.609375 L 344.605469 557.585938 L 344.632812 557.5625 L 344.660156 557.535156 L 344.683594 557.515625 L 344.714844 557.488281 L 344.761719 557.441406 L 344.789062 557.421875 L 344.839844 557.371094 L 344.867188 557.347656 L 344.890625 557.328125 L 344.921875 557.300781 L 344.945312 557.277344 L 344.976562 557.25 L 344.996094 557.230469 L 345.027344 557.203125 L 345.082031 557.148438 L 345.097656 557.136719 L 345.132812 557.101562 L 345.152344 557.085938 L 345.203125 557.035156 L 345.21875 557.023438 L 345.253906 556.988281 L 345.273438 556.972656 L 345.308594 556.941406 L 345.382812 556.867188 L 345.410156 556.84375 L 345.433594 556.820312 L 345.460938 556.796875 L 345.511719 556.746094 L 345.535156 556.726562 L 345.5625 556.699219 L 345.589844 556.675781 L 345.613281 556.648438 L 345.640625 556.628906 L 345.664062 556.601562 L 345.691406 556.578125 L 345.769531 556.5 L 345.792969 556.480469 L 345.84375 556.429688 L 345.871094 556.40625 L 346.070312 556.207031 L 346.097656 556.183594 L 346.125 556.152344 L 346.195312 556.082031 L 346.238281 556.042969 L 346.246094 556.03125 L 346.296875 555.980469 L 346.367188 555.914062 L 346.382812 555.894531 C 346.40625 555.871094 346.429688 555.851562 346.449219 555.828125 L 346.453125 555.824219 L 346.523438 555.757812 L 346.539062 555.742188 C 346.558594 555.71875 346.582031 555.695312 346.605469 555.671875 C 346.628906 555.648438 346.652344 555.625 346.675781 555.601562 L 346.691406 555.585938 L 346.753906 555.519531 L 346.824219 555.449219 L 346.839844 555.429688 L 346.976562 555.292969 L 346.992188 555.273438 C 347.015625 555.253906 347.035156 555.230469 347.054688 555.207031 L 347.058594 555.203125 L 347.125 555.132812 L 347.140625 555.117188 L 347.203125 555.050781 L 347.273438 554.980469 L 347.289062 554.960938 L 347.347656 554.898438 L 347.355469 554.890625 L 347.421875 554.820312 L 347.4375 554.800781 C 347.457031 554.78125 347.476562 554.761719 347.496094 554.738281 L 347.503906 554.730469 L 347.566406 554.664062 L 347.585938 554.644531 L 347.640625 554.582031 L 347.648438 554.574219 L 347.714844 554.503906 L 347.730469 554.488281 L 347.785156 554.421875 L 347.796875 554.414062 L 347.859375 554.34375 L 347.875 554.328125 C 347.894531 554.304688 347.914062 554.28125 347.933594 554.261719 L 347.9375 554.253906 L 348.003906 554.1875 L 348.019531 554.167969 C 348.039062 554.148438 348.058594 554.125 348.074219 554.105469 L 348.085938 554.09375 L 348.144531 554.027344 L 348.164062 554.007812 L 348.222656 553.945312 L 348.226562 553.9375 L 348.289062 553.863281 L 348.304688 553.847656 L 348.359375 553.785156 L 348.371094 553.773438 C 348.390625 553.75 348.410156 553.730469 348.429688 553.703125 L 348.449219 553.6875 C 348.464844 553.664062 348.484375 553.644531 348.503906 553.621094 L 348.511719 553.613281 L 348.574219 553.542969 L 348.589844 553.523438 L 348.640625 553.464844 L 348.652344 553.449219 L 348.710938 553.382812 L 348.730469 553.359375 L 348.78125 553.300781 L 348.789062 553.285156 L 348.847656 553.214844 L 348.867188 553.195312 L 348.917969 553.136719 L 348.929688 553.125 L 348.988281 553.050781 L 349.003906 553.035156 C 349.019531 553.015625 349.039062 552.992188 349.054688 552.972656 L 349.066406 552.960938 L 349.125 552.890625 L 349.140625 552.871094 L 349.191406 552.808594 L 349.203125 552.796875 C 349.222656 552.769531 349.242188 552.75 349.261719 552.722656 L 349.277344 552.707031 L 349.328125 552.640625 L 349.339844 552.628906 L 349.398438 552.558594 L 349.410156 552.539062 L 349.460938 552.476562 L 349.472656 552.464844 L 349.53125 552.394531 L 349.546875 552.371094 L 349.59375 552.316406 L 349.609375 552.296875 L 349.664062 552.230469 L 349.683594 552.203125 L 349.726562 552.152344 L 349.742188 552.132812 L 349.796875 552.0625 L 349.816406 552.039062 L 349.859375 551.984375 L 349.875 551.964844 L 349.929688 551.894531 L 349.945312 551.871094 L 349.988281 551.816406 L 350.003906 551.796875 L 350.058594 551.726562 L 350.074219 551.707031 C 350.089844 551.6875 350.105469 551.667969 350.121094 551.648438 L 350.132812 551.628906 L 350.1875 551.5625 L 350.207031 551.535156 L 350.246094 551.484375 L 350.261719 551.460938 C 350.28125 551.4375 350.296875 551.414062 350.316406 551.394531 L 350.335938 551.367188 L 350.375 551.316406 L 350.390625 551.292969 C 350.410156 551.269531 350.425781 551.25 350.445312 551.222656 L 350.464844 551.203125 C 350.476562 551.183594 350.488281 551.167969 350.503906 551.148438 L 350.519531 551.125 L 350.570312 551.054688 L 350.589844 551.03125 L 350.628906 550.976562 L 350.644531 550.957031 C 350.664062 550.933594 350.679688 550.910156 350.695312 550.886719 L 350.714844 550.863281 L 350.753906 550.808594 L 350.769531 550.785156 C 350.789062 550.761719 350.804688 550.738281 350.820312 550.71875 L 350.839844 550.691406 L 350.878906 550.640625 L 350.898438 550.617188 L 350.945312 550.546875 L 350.964844 550.519531 L 351 550.46875 L 351.019531 550.445312 C 351.039062 550.421875 351.054688 550.398438 351.070312 550.375 L 351.089844 550.351562 L 351.125 550.296875 L 351.144531 550.273438 L 351.191406 550.207031 L 351.210938 550.175781 L 351.246094 550.128906 L 351.265625 550.101562 L 351.3125 550.035156 L 351.332031 550.007812 C 351.347656 549.992188 351.355469 549.972656 351.367188 549.957031 L 351.386719 549.929688 C 351.402344 549.90625 351.417969 549.886719 351.4375 549.859375 L 351.453125 549.832031 L 351.488281 549.785156 L 351.507812 549.757812 C 351.523438 549.734375 351.539062 549.710938 351.554688 549.6875 L 351.574219 549.660156 L 351.609375 549.613281 L 351.628906 549.582031 L 351.675781 549.515625 L 351.695312 549.484375 L 351.726562 549.4375 L 351.746094 549.40625 L 351.792969 549.339844 L 351.8125 549.3125 L 351.84375 549.261719 L 351.863281 549.234375 L 351.910156 549.167969 L 351.929688 549.136719 L 351.960938 549.089844 L 351.980469 549.058594 L 352.027344 548.992188 L 352.042969 548.964844 L 352.078125 548.914062 L 352.09375 548.886719 L 352.140625 548.816406 L 352.160156 548.789062 L 352.191406 548.742188 L 352.210938 548.710938 L 352.253906 548.644531 L 352.277344 548.613281 L 352.304688 548.566406 L 352.324219 548.535156 L 352.371094 548.464844 L 352.386719 548.4375 L 352.417969 548.390625 L 352.4375 548.355469 L 352.480469 548.289062 L 352.5 548.257812 L 352.53125 548.210938 L 352.550781 548.179688 L 352.59375 548.113281 L 352.617188 548.078125 L 352.640625 548.039062 L 352.664062 548.003906 L 352.703125 547.9375 L 352.726562 547.902344 L 352.753906 547.859375 L 352.773438 547.824219 C 352.789062 547.804688 352.800781 547.78125 352.8125 547.757812 L 352.835938 547.722656 L 352.882812 547.644531 L 352.921875 547.582031 L 352.941406 547.546875 L 352.96875 547.503906 L 352.992188 547.46875 C 353.003906 547.445312 353.015625 547.425781 353.03125 547.402344 L 353.050781 547.367188 L 353.097656 547.289062 L 353.136719 547.222656 L 353.160156 547.1875 L 353.183594 547.144531 L 353.207031 547.109375 L 353.246094 547.042969 L 353.265625 547.007812 L 353.3125 546.929688 L 353.351562 546.867188 L 353.371094 546.828125 L 353.417969 546.75 L 353.445312 546.699219 L 353.476562 546.644531 L 353.496094 546.613281 L 353.523438 546.566406 L 353.539062 546.535156 L 353.582031 546.460938 L 353.601562 546.433594 L 353.625 546.386719 L 353.640625 546.359375 C 353.65625 546.332031 353.667969 546.304688 353.6875 546.28125 L 353.726562 546.203125 L 353.742188 546.179688 C 353.757812 546.152344 353.773438 546.125 353.785156 546.097656 L 353.804688 546.066406 L 353.828125 546.023438 L 353.84375 546 L 353.890625 545.914062 L 353.902344 545.890625 L 353.929688 545.839844 L 353.941406 545.824219 C 353.957031 545.792969 353.972656 545.761719 353.992188 545.734375 L 354.003906 545.707031 L 354.03125 545.660156 L 354.039062 545.644531 L 354.089844 545.546875 L 354.101562 545.527344 L 354.128906 545.472656 L 354.132812 545.46875 C 354.152344 545.433594 354.167969 545.402344 354.1875 545.367188 L 354.199219 545.34375 C 354.226562 545.289062 354.257812 545.234375 354.285156 545.179688 L 354.292969 545.164062 L 354.324219 545.109375 L 354.328125 545.097656 L 354.378906 545 L 354.390625 544.980469 C 354.417969 544.921875 354.449219 544.871094 354.476562 544.816406 L 354.484375 544.796875 L 354.515625 544.734375 L 354.570312 544.632812 L 354.582031 544.609375 C 354.609375 544.554688 354.636719 544.5 354.664062 544.441406 L 354.671875 544.429688 L 354.699219 544.371094 L 354.757812 544.261719 L 354.765625 544.242188 L 354.792969 544.1875 L 354.792969 544.183594 L 354.855469 544.058594 C 354.882812 544 354.910156 543.945312 354.9375 543.886719 L 354.945312 543.875 L 355.03125 543.699219 L 355.035156 543.6875 L 355.0625 543.628906 L 355.117188 543.515625 L 355.125 543.5 C 355.152344 543.441406 355.179688 543.382812 355.207031 543.324219 L 355.210938 543.316406 C 355.238281 543.257812 355.265625 543.203125 355.292969 543.144531 L 355.300781 543.128906 L 355.324219 543.070312 L 355.328125 543.070312 L 355.378906 542.949219 L 355.382812 542.945312 C 355.410156 542.882812 355.4375 542.824219 355.464844 542.761719 L 355.46875 542.757812 C 355.496094 542.695312 355.523438 542.632812 355.550781 542.570312 L 355.554688 542.570312 C 355.582031 542.507812 355.609375 542.445312 355.636719 542.382812 C 355.75 542.128906 355.855469 541.878906 355.960938 541.628906 L 355.960938 541.625 C 360.546875 530.675781 360.628906 518.359375 356.191406 507.351562 C 353.078125 499.6875 344.339844 496 336.675781 499.113281 C 329.027344 502.21875 325.335938 510.933594 328.421875 518.589844 C 331.523438 526.265625 327.8125 535 320.136719 538.097656 C 314.941406 540.195312 309.015625 539.222656 304.765625 535.574219 C 304.679688 535.5 304.59375 535.425781 304.507812 535.355469 C 304.457031 535.304688 304.402344 535.25 304.347656 535.199219 L 303.9375 534.804688 C 297.941406 529.058594 288.460938 529.144531 282.570312 534.996094 C 276.945312 540.574219 276.773438 549.613281 282.183594 555.398438 C 282.371094 555.597656 282.5625 555.789062 282.757812 555.984375 Z M 282.75 555.976562 " style=" stroke:none;fill-rule:nonzero;fill:rgb(7.45098%,0%,62.745098%);fill-opacity:1;" />
<path d="M 374.433594 599.089844 C 370.460938 599.097656 366.648438 597.515625 363.84375 594.703125 L 303.933594 534.792969 C 298.078125 528.953125 298.066406 519.46875 303.910156 513.617188 C 309.75 507.761719 319.234375 507.75 325.085938 513.59375 C 325.09375 513.601562 325.101562 513.609375 325.113281 513.617188 L 385.019531 573.523438 C 390.871094 579.375 390.867188 588.859375 385.019531 594.707031 C 382.210938 597.511719 378.402344 599.089844 374.433594 599.089844 Z M 374.433594 599.089844 " style=" stroke:none;fill-rule:nonzero;fill:rgb(81.960784%,76.078431%,100%);fill-opacity:1;" />
<path d="M 359.453125 29.953125 L 419.363281 29.953125 C 452.449219 29.953125 479.273438 56.777344 479.273438 89.863281 C 479.273438 122.949219 452.449219 149.773438 419.363281 149.773438 C 386.277344 149.773438 359.453125 122.949219 359.453125 89.863281 Z M 359.453125 29.953125 " style=" stroke:none;fill-rule:nonzero;fill:rgb(100%,61.176471%,36.862745%);fill-opacity:1;" />
<path d="M 374.433594 29.953125 C 382.703125 29.953125 389.410156 36.660156 389.410156 44.929688 L 389.410156 134.796875 C 389.410156 143.066406 382.703125 149.773438 374.433594 149.773438 C 366.160156 149.773438 359.453125 143.066406 359.453125 134.796875 L 359.453125 44.933594 C 359.453125 36.660156 366.160156 29.953125 374.433594 29.953125 Z M 374.433594 29.953125 " style=" stroke:none;fill-rule:nonzero;fill:rgb(100%,50.588235%,19.607843%);fill-opacity:1;" />
<path d="M 359.453125 29.953125 C 342.910156 46.5 342.910156 73.320312 359.453125 89.863281 L 389.410156 89.863281 L 389.410156 59.910156 L 404.386719 44.929688 C 412.65625 36.660156 412.65625 23.25 404.386719 14.976562 C 396.113281 6.707031 382.703125 6.707031 374.429688 14.976562 Z M 359.453125 29.953125 " style=" stroke:none;fill-rule:nonzero;fill:rgb(82.745098%,25.098039%,0%);fill-opacity:1;" />
<path d="M 299.546875 209.683594 L 380.871094 345.226562 C 386.457031 354.535156 389.410156 365.191406 389.410156 376.046875 L 389.410156 509.226562 C 389.410156 525.769531 376 539.183594 359.453125 539.183594 C 342.910156 539.183594 329.5 525.769531 329.5 509.226562 L 329.5 389.410156 L 239.636719 299.546875 Z M 299.546875 209.683594 " style=" stroke:none;fill-rule:nonzero;fill:rgb(100%,61.176471%,36.862745%);fill-opacity:1;" />
<path d="M 345.160156 299.859375 C 336.886719 299.871094 330.1875 306.585938 330.199219 314.859375 C 330.199219 317.566406 330.9375 320.222656 332.332031 322.542969 L 347.742188 348.230469 C 351.996094 355.324219 361.195312 357.628906 368.289062 353.375 C 375.371094 349.128906 377.683594 339.953125 373.453125 332.859375 L 361.496094 312.933594 L 361.492188 312.925781 L 361.464844 312.878906 L 361.453125 312.855469 L 361.429688 312.820312 L 361.375 312.730469 L 361.351562 312.691406 L 361.300781 312.605469 L 361.273438 312.554688 L 360.996094 312.097656 L 360.984375 312.074219 C 359.234375 309.160156 358.019531 307.132812 358.019531 307.132812 C 355.308594 302.617188 350.425781 299.851562 345.160156 299.859375 Z M 345.160156 299.859375 " style=" stroke:none;fill-rule:nonzero;fill:rgb(100%,80.784314%,68.627451%);fill-opacity:1;" />
<path d="M 280.929688 304.679688 C 272.65625 304.679688 265.953125 311.382812 265.953125 319.65625 C 265.953125 323.628906 267.53125 327.4375 270.339844 330.246094 L 329.5 389.410156 L 329.5 485.46875 C 329.5 493.738281 336.207031 500.445312 344.480469 500.445312 C 352.75 500.445312 359.457031 493.738281 359.457031 485.46875 L 359.457031 389.410156 C 359.457031 381.464844 356.300781 373.84375 350.683594 368.226562 L 291.519531 309.066406 C 288.710938 306.25 284.902344 304.671875 280.929688 304.679688 Z M 280.929688 304.679688 " style=" stroke:none;fill-rule:nonzero;fill:rgb(100%,55.294118%,27.058824%);fill-opacity:1;" />
<path d="M 374.433594 389.410156 C 382.703125 389.410156 389.410156 396.113281 389.410156 404.386719 L 389.410156 434.339844 C 389.410156 442.613281 382.703125 449.316406 374.433594 449.316406 C 366.160156 449.316406 359.453125 442.613281 359.453125 434.339844 L 359.453125 404.386719 C 359.453125 396.113281 366.160156 389.410156 374.433594 389.410156 Z M 374.433594 389.410156 " style=" stroke:none;fill-rule:nonzero;fill:rgb(100%,68.627451%,49.019608%);fill-opacity:1;" />
<path d="M 404.386719 120.738281 C 396.125 120.75 389.414062 114.0625 389.402344 105.796875 C 389.398438 101.890625 390.921875 98.132812 393.652344 95.332031 L 423.605469 64.457031 C 429.355469 58.519531 438.828125 58.363281 444.769531 64.113281 C 450.710938 69.859375 450.863281 79.335938 445.117188 85.273438 C 445.101562 85.289062 445.089844 85.300781 445.078125 85.3125 L 415.121094 116.191406 C 412.3125 119.105469 408.4375 120.75 404.386719 120.738281 Z M 404.386719 120.738281 " style=" stroke:none;fill-rule:nonzero;fill:rgb(7.45098%,0%,62.745098%);fill-opacity:1;" />
<path d="M 404.386719 149.773438 C 396.121094 149.777344 389.414062 143.078125 389.410156 134.8125 C 389.410156 134.808594 389.410156 134.800781 389.410156 134.796875 L 389.410156 44.933594 C 389.410156 36.660156 396.113281 29.953125 404.386719 29.953125 C 412.660156 29.953125 419.363281 36.660156 419.363281 44.933594 L 419.363281 134.796875 C 419.371094 143.0625 412.671875 149.769531 404.40625 149.773438 C 404.398438 149.773438 404.390625 149.773438 404.386719 149.773438 Z M 404.386719 149.773438 " style=" stroke:none;fill-rule:nonzero;fill:rgb(37.647059%,18.431373%,100%);fill-opacity:1;" />
<path d="M 419.363281 74.886719 C 419.363281 83.160156 412.660156 89.863281 404.386719 89.863281 C 396.113281 89.863281 389.410156 83.160156 389.410156 74.886719 C 389.410156 66.613281 396.113281 59.910156 404.386719 59.910156 C 412.660156 59.910156 419.363281 66.613281 419.363281 74.886719 Z M 419.363281 74.886719 " style=" stroke:none;fill-rule:nonzero;fill:rgb(28.235294%,5.882353%,92.941176%);fill-opacity:1;" />
<path d="M 209.683594 269.589844 L 230.5625 305.445312 C 247.105469 330.261719 280.632812 336.96875 305.445312 320.425781 C 330.261719 303.882812 336.96875 270.351562 320.425781 245.539062 L 299.542969 209.683594 Z M 209.683594 269.589844 " style=" stroke:none;fill-rule:nonzero;fill:rgb(5.490196%,53.72549%,0%);fill-opacity:1;" />
<path d="M 299.546875 179.726562 L 239.636719 179.726562 C 206.550781 179.726562 179.726562 206.550781 179.726562 239.636719 C 179.726562 272.722656 206.550781 299.546875 239.636719 299.546875 L 299.546875 299.546875 Z M 299.546875 179.726562 " style=" stroke:none;fill-rule:nonzero;fill:rgb(5.490196%,53.72549%,0%);fill-opacity:1;" />
<path d="M 181.433594 271.699219 C 173.160156 271.703125 166.457031 278.414062 166.464844 286.6875 C 166.464844 290.125 167.648438 293.457031 169.816406 296.125 C 177.378906 305.445312 186.734375 313.15625 197.328125 318.800781 C 204.628906 322.695312 213.699219 319.933594 217.59375 312.636719 C 221.484375 305.347656 218.738281 296.289062 211.457031 292.386719 C 208.933594 291.039062 206.511719 289.515625 204.207031 287.828125 L 204.203125 287.828125 C 204.105469 287.753906 204.003906 287.679688 203.90625 287.605469 L 203.898438 287.601562 L 203.835938 287.554688 L 203.824219 287.546875 C 203.726562 287.476562 203.628906 287.402344 203.53125 287.328125 L 203.523438 287.320312 L 203.460938 287.273438 L 203.449219 287.265625 L 203.378906 287.214844 C 203.332031 287.175781 203.285156 287.140625 203.234375 287.101562 L 203.21875 287.09375 L 203.164062 287.050781 L 203.148438 287.039062 L 203.089844 286.992188 L 203.074219 286.984375 L 203.011719 286.933594 L 203.003906 286.929688 L 202.933594 286.875 L 202.921875 286.863281 L 202.863281 286.820312 L 202.847656 286.804688 L 202.796875 286.765625 L 202.773438 286.746094 L 202.726562 286.710938 L 202.703125 286.695312 L 202.652344 286.65625 L 202.636719 286.640625 L 202.570312 286.589844 L 202.542969 286.570312 L 202.5 286.535156 L 202.472656 286.511719 L 202.433594 286.480469 L 202.402344 286.457031 L 202.367188 286.425781 L 202.335938 286.402344 L 202.296875 286.371094 L 202.242188 286.332031 L 202.207031 286.300781 L 202.101562 286.21875 L 202.074219 286.195312 L 202.035156 286.164062 L 202.011719 286.144531 L 201.96875 286.109375 L 201.960938 286.101562 L 201.867188 286.027344 L 201.847656 286.011719 L 201.804688 285.976562 L 201.78125 285.957031 L 201.738281 285.921875 L 201.714844 285.902344 L 201.675781 285.871094 L 201.648438 285.847656 L 201.5 285.726562 L 201.488281 285.71875 L 201.441406 285.679688 L 201.425781 285.664062 L 201.378906 285.625 L 201.363281 285.613281 L 201.3125 285.570312 L 201.308594 285.566406 L 201.140625 285.425781 L 201.132812 285.421875 L 201.082031 285.378906 L 201.070312 285.367188 L 201.019531 285.324219 L 201.015625 285.320312 L 200.785156 285.125 L 200.78125 285.121094 L 200.730469 285.078125 L 200.71875 285.066406 C 200.601562 284.96875 200.488281 284.871094 200.371094 284.769531 C 197.722656 282.476562 195.277344 279.953125 193.0625 277.230469 C 190.21875 273.726562 185.945312 271.691406 181.433594 271.699219 Z M 181.433594 271.699219 " style=" stroke:none;fill-rule:nonzero;fill:rgb(7.45098%,0%,62.745098%);fill-opacity:1;" />
<path d="M 329.5 239.636719 C 329.5 272.722656 302.679688 299.546875 269.589844 299.546875 C 236.503906 299.546875 209.683594 272.722656 209.683594 239.636719 C 209.683594 206.550781 236.503906 179.726562 269.589844 179.726562 C 302.679688 179.726562 329.5 206.550781 329.5 239.636719 Z M 329.5 239.636719 " style=" stroke:none;fill-rule:nonzero;fill:rgb(0%,47.45098%,7.45098%);fill-opacity:1;" />
<path d="M 370.796875 108.476562 C 395.613281 133.289062 395.613281 173.523438 370.796875 198.339844 L 325.863281 243.269531 C 309.011719 260.125 286.15625 269.589844 262.320312 269.589844 L 252.046875 269.589844 C 228.210938 269.589844 205.351562 260.125 188.5 243.269531 C 176.804688 231.574219 176.804688 212.605469 188.5 200.910156 L 280.933594 108.476562 C 305.75 83.660156 345.984375 83.660156 370.796875 108.476562 Z M 370.796875 108.476562 " style=" stroke:none;fill-rule:nonzero;fill:rgb(18.823529%,74.901961%,0%);fill-opacity:1;" />
<path d="M 325.867188 89.863281 C 309.007812 89.839844 292.839844 96.539062 280.933594 108.472656 C 280.933594 108.472656 280.824219 108.582031 280.621094 108.789062 L 280.613281 108.796875 C 280.511719 108.894531 280.390625 109.019531 280.246094 109.164062 L 280.226562 109.183594 L 280.183594 109.222656 L 280.175781 109.234375 L 280.132812 109.277344 L 280.109375 109.296875 L 280.066406 109.34375 L 280.046875 109.363281 L 280.03125 109.375 L 252.640625 136.765625 C 246.816406 142.640625 246.855469 152.125 252.730469 157.945312 C 258.585938 163.753906 268.03125 163.734375 273.863281 157.902344 L 302.113281 129.652344 C 308.402344 123.332031 316.953125 119.792969 325.863281 119.816406 C 334.136719 119.824219 340.847656 113.125 340.859375 104.851562 C 340.867188 96.582031 334.167969 89.867188 325.894531 89.859375 C 325.886719 89.863281 325.878906 89.863281 325.867188 89.863281 Z M 220.914062 174.699219 C 216.949219 174.695312 213.148438 176.265625 210.34375 179.066406 L 193.371094 196.035156 C 187.523438 201.886719 187.527344 211.371094 193.378906 217.21875 C 199.230469 223.066406 208.710938 223.0625 214.558594 217.210938 L 231.503906 200.269531 C 237.351562 194.417969 237.351562 184.933594 231.503906 179.085938 C 228.695312 176.277344 224.886719 174.699219 220.914062 174.699219 Z M 220.914062 174.699219 " style=" stroke:none;fill-rule:nonzero;fill:rgb(54.117647%,91.372549%,38.823529%);fill-opacity:1;" />
<path d="M 359.457031 164.75 C 359.457031 189.566406 339.339844 209.683594 314.523438 209.683594 C 289.707031 209.683594 269.589844 189.566406 269.589844 164.75 C 269.589844 139.933594 289.707031 119.816406 314.523438 119.816406 C 339.339844 119.816406 359.457031 139.933594 359.457031 164.75 Z M 359.457031 164.75 " style=" stroke:none;fill-rule:nonzero;fill:rgb(5.098039%,62.352941%,0%);fill-opacity:1;" />
<path d="M 372.839844 150.765625 C 366.027344 150.773438 360.082031 155.371094 358.355469 161.960938 C 356.84375 167.710938 353.828125 172.957031 349.617188 177.160156 L 304.683594 222.089844 C 293.472656 233.363281 278.21875 239.679688 262.320312 239.636719 L 253.320312 239.636719 C 245.050781 239.636719 238.34375 246.34375 238.34375 254.613281 C 238.34375 262.886719 245.046875 269.59375 253.320312 269.59375 L 262.320312 269.59375 C 286.15625 269.59375 309.011719 260.125 325.867188 243.269531 L 370.796875 198.339844 C 370.828125 198.3125 370.855469 198.28125 370.886719 198.253906 L 370.914062 198.226562 C 370.933594 198.207031 370.953125 198.183594 370.976562 198.164062 L 371.003906 198.136719 C 371.058594 198.078125 371.117188 198.019531 371.175781 197.960938 L 371.199219 197.933594 L 371.265625 197.871094 L 371.289062 197.84375 L 371.460938 197.667969 L 371.578125 197.550781 L 371.660156 197.464844 L 371.660156 197.460938 L 371.746094 197.375 L 371.773438 197.34375 L 371.832031 197.28125 L 371.859375 197.253906 L 372.027344 197.078125 L 372.050781 197.050781 L 372.113281 196.984375 L 372.140625 196.957031 C 372.167969 196.929688 372.195312 196.902344 372.21875 196.871094 L 372.222656 196.867188 C 372.25 196.839844 372.28125 196.808594 372.304688 196.78125 L 372.335938 196.75 L 372.394531 196.6875 L 372.421875 196.660156 C 372.476562 196.601562 372.53125 196.542969 372.585938 196.480469 L 372.609375 196.457031 L 372.671875 196.386719 L 372.695312 196.359375 C 372.753906 196.300781 372.808594 196.242188 372.863281 196.179688 L 372.886719 196.15625 L 372.949219 196.085938 L 372.96875 196.0625 C 373.027344 196 373.082031 195.941406 373.136719 195.878906 L 373.15625 195.855469 L 373.21875 195.785156 L 373.242188 195.757812 C 373.296875 195.699219 373.351562 195.636719 373.40625 195.578125 L 373.429688 195.550781 C 373.449219 195.527344 373.472656 195.503906 373.492188 195.480469 L 373.511719 195.457031 L 373.675781 195.273438 L 373.695312 195.246094 L 373.753906 195.179688 L 373.78125 195.152344 L 373.941406 194.96875 L 373.960938 194.945312 L 374.023438 194.871094 L 374.042969 194.847656 C 374.097656 194.785156 374.152344 194.722656 374.203125 194.660156 L 374.222656 194.636719 L 374.285156 194.566406 L 374.308594 194.542969 C 374.359375 194.480469 374.414062 194.417969 374.464844 194.355469 L 374.488281 194.328125 L 374.566406 194.234375 C 374.621094 194.171875 374.671875 194.109375 374.722656 194.046875 L 374.742188 194.023438 L 374.804688 193.949219 L 374.824219 193.925781 C 374.878906 193.863281 374.929688 193.796875 374.980469 193.734375 L 375 193.714844 L 375.234375 193.421875 L 375.25 193.40625 L 375.316406 193.324219 L 375.503906 193.089844 L 375.570312 193.007812 L 375.585938 192.992188 L 375.742188 192.792969 L 375.753906 192.777344 C 375.773438 192.75 375.796875 192.722656 375.820312 192.695312 L 375.835938 192.675781 C 375.886719 192.609375 375.9375 192.542969 375.988281 192.476562 L 376 192.460938 L 376.070312 192.375 L 376.082031 192.359375 C 376.132812 192.292969 376.183594 192.226562 376.234375 192.160156 L 376.246094 192.148438 C 376.269531 192.117188 376.292969 192.089844 376.3125 192.0625 L 376.328125 192.042969 C 376.378906 191.976562 376.429688 191.910156 376.480469 191.84375 L 376.492188 191.828125 C 376.515625 191.796875 376.539062 191.769531 376.558594 191.742188 L 376.570312 191.726562 C 376.621094 191.660156 376.671875 191.589844 376.722656 191.523438 L 376.730469 191.515625 L 376.800781 191.421875 L 376.808594 191.410156 L 376.960938 191.203125 L 376.96875 191.195312 L 377.039062 191.097656 L 377.042969 191.089844 L 377.199219 190.878906 L 377.203125 190.875 L 377.273438 190.773438 L 377.28125 190.765625 L 377.433594 190.558594 L 377.4375 190.550781 L 377.507812 190.453125 L 377.511719 190.445312 L 377.664062 190.234375 L 377.667969 190.226562 C 377.691406 190.195312 377.714844 190.164062 377.738281 190.128906 L 377.746094 190.121094 C 377.792969 190.050781 377.84375 189.980469 377.894531 189.910156 L 377.894531 189.90625 C 377.921875 189.871094 377.945312 189.835938 377.972656 189.796875 C 378.046875 189.691406 378.125 189.582031 378.199219 189.472656 C 382.386719 183.410156 385.476562 176.664062 387.339844 169.535156 C 389.425781 161.523438 384.621094 153.335938 376.609375 151.25 C 375.378906 150.929688 374.109375 150.765625 372.839844 150.765625 Z M 372.839844 150.765625 " style=" stroke:none;fill-rule:nonzero;fill:rgb(5.098039%,62.352941%,0%);fill-opacity:1;" />
<path d="M 311.070312 186.996094 L 401.816406 282 C 413.050781 293.234375 428.289062 299.546875 444.179688 299.546875 L 509.226562 299.546875 C 525.769531 299.546875 539.179688 286.136719 539.179688 269.589844 C 539.179688 253.046875 525.769531 239.636719 509.226562 239.636719 L 464.292969 239.636719 C 454.863281 239.636719 445.988281 235.195312 440.332031 227.65625 L 370.375 135.558594 C 357.335938 118.171875 332.671875 114.648438 315.285156 127.6875 C 313.796875 128.804688 312.386719 130.027344 311.070312 131.34375 C 295.65625 146.664062 295.496094 171.496094 310.816406 186.910156 C 310.875 186.96875 310.929688 187.023438 311.070312 186.996094 Z M 311.070312 186.996094 " style=" stroke:none;fill-rule:nonzero;fill:rgb(100%,61.176471%,36.862745%);fill-opacity:1;" />
<path d="M 379.339844 157.152344 C 371.066406 157.160156 364.367188 163.871094 364.371094 172.144531 C 364.375 175.410156 365.445312 178.589844 367.421875 181.191406 L 385.542969 205.042969 C 390.542969 211.632812 399.9375 212.921875 406.527344 207.925781 C 413.109375 202.929688 414.40625 193.542969 409.417969 186.953125 L 391.25 163.035156 C 388.417969 159.324219 384.011719 157.144531 379.339844 157.152344 Z M 379.339844 157.152344 " style=" stroke:none;fill-rule:nonzero;fill:rgb(100%,80.784314%,68.627451%);fill-opacity:1;" />
<path d="M 524.191406 539.183594 C 517.320312 539.179688 511.335938 534.5 509.679688 527.832031 L 449.773438 288.195312 C 447.769531 280.175781 452.648438 272.046875 460.667969 270.042969 C 468.691406 268.042969 476.816406 272.921875 478.820312 280.941406 L 538.730469 520.578125 C 540.722656 528.617188 535.820312 536.75 527.78125 538.742188 C 526.605469 539.03125 525.398438 539.179688 524.191406 539.183594 Z M 524.191406 539.183594 " style=" stroke:none;fill-rule:nonzero;fill:rgb(100%,41.176471%,4.313725%);fill-opacity:1;" />
<path d="M 468.023438 314.523438 C 461.15625 314.519531 455.171875 309.839844 453.515625 303.171875 L 449.773438 288.195312 C 447.769531 280.175781 452.648438 272.046875 460.667969 270.042969 C 468.691406 268.042969 476.816406 272.921875 478.820312 280.941406 L 482.5625 295.917969 C 484.558594 303.957031 479.65625 312.089844 471.613281 314.082031 C 470.441406 314.375 469.234375 314.519531 468.023438 314.523438 Z M 468.023438 314.523438 " style=" stroke:none;fill-rule:nonzero;fill:rgb(82.745098%,25.098039%,0%);fill-opacity:1;" />
<path d="M 338.871094 119.816406 C 317.140625 119.832031 299.53125 137.460938 299.546875 159.195312 C 299.550781 169.625 303.695312 179.621094 311.070312 186.996094 L 311.078125 187.003906 L 311.082031 187.011719 L 311.171875 187.101562 L 311.238281 187.171875 L 311.289062 187.226562 L 311.367188 187.304688 L 311.414062 187.359375 L 311.417969 187.363281 L 311.441406 187.382812 L 311.472656 187.417969 L 311.539062 187.484375 L 311.558594 187.507812 L 311.558594 187.511719 L 311.664062 187.617188 L 311.675781 187.632812 L 311.722656 187.683594 L 311.828125 187.789062 L 311.871094 187.835938 L 311.890625 187.855469 L 311.90625 187.875 L 311.972656 187.941406 L 312.066406 188.042969 L 312.109375 188.085938 L 312.128906 188.109375 L 312.242188 188.222656 L 312.257812 188.242188 L 312.308594 188.296875 L 312.375 188.367188 L 312.488281 188.484375 L 312.511719 188.507812 L 312.527344 188.527344 L 312.597656 188.601562 L 312.617188 188.621094 L 313.148438 189.179688 C 313.25 189.285156 313.359375 189.394531 313.464844 189.507812 L 313.484375 189.527344 L 313.511719 189.558594 L 313.632812 189.6875 L 313.644531 189.695312 L 313.703125 189.757812 L 313.710938 189.769531 L 313.914062 189.980469 L 313.976562 190.042969 L 314.128906 190.207031 L 314.167969 190.246094 L 314.199219 190.28125 L 314.359375 190.449219 L 314.382812 190.472656 L 314.480469 190.574219 L 314.527344 190.621094 L 314.554688 190.652344 L 314.632812 190.734375 L 314.726562 190.832031 L 314.785156 190.890625 L 314.878906 190.988281 L 314.964844 191.082031 L 315.023438 191.140625 C 315.066406 191.1875 315.113281 191.234375 315.160156 191.285156 L 315.179688 191.308594 C 315.351562 191.484375 315.523438 191.664062 315.699219 191.851562 L 315.746094 191.898438 C 315.847656 192.003906 315.953125 192.117188 316.058594 192.226562 L 316.113281 192.28125 L 316.191406 192.367188 C 316.304688 192.484375 316.417969 192.601562 316.53125 192.722656 L 316.578125 192.769531 C 316.625 192.816406 316.664062 192.859375 316.710938 192.90625 L 316.714844 192.914062 L 316.800781 193.003906 L 316.898438 193.105469 L 316.96875 193.175781 L 317.140625 193.359375 C 317.183594 193.402344 317.226562 193.445312 317.269531 193.492188 L 317.273438 193.496094 C 317.316406 193.542969 317.363281 193.589844 317.40625 193.636719 L 317.429688 193.660156 C 317.492188 193.726562 317.554688 193.792969 317.617188 193.859375 L 317.644531 193.882812 C 317.746094 193.992188 317.851562 194.101562 317.957031 194.214844 L 317.972656 194.230469 C 318.042969 194.300781 318.117188 194.378906 318.1875 194.453125 L 318.191406 194.457031 C 318.289062 194.558594 318.382812 194.65625 318.480469 194.761719 L 319.355469 195.675781 L 319.390625 195.710938 L 319.519531 195.84375 L 319.53125 195.859375 L 319.6875 196.019531 L 319.691406 196.023438 L 319.757812 196.09375 C 320.046875 196.394531 320.34375 196.707031 320.644531 197.023438 L 320.6875 197.070312 C 320.847656 197.234375 321.007812 197.402344 321.171875 197.574219 L 321.207031 197.613281 L 321.21875 197.625 L 321.292969 197.703125 L 321.660156 198.085938 L 321.84375 198.28125 C 321.984375 198.425781 322.125 198.570312 322.265625 198.71875 L 322.308594 198.761719 C 322.324219 198.78125 322.34375 198.804688 322.363281 198.824219 L 322.4375 198.898438 L 322.542969 199.007812 C 322.742188 199.214844 322.9375 199.421875 323.136719 199.632812 L 323.304688 199.804688 L 323.316406 199.820312 L 323.46875 199.976562 C 323.585938 200.101562 323.710938 200.230469 323.828125 200.355469 L 324.355469 200.90625 L 324.371094 200.921875 L 324.476562 201.035156 C 324.675781 201.242188 324.871094 201.445312 325.070312 201.65625 L 325.15625 201.742188 C 325.210938 201.800781 325.269531 201.863281 325.328125 201.921875 L 325.488281 202.089844 L 325.519531 202.125 L 325.652344 202.265625 C 325.785156 202.402344 325.917969 202.542969 326.050781 202.683594 L 326.148438 202.78125 L 326.175781 202.8125 L 326.230469 202.871094 L 326.277344 202.917969 L 326.460938 203.113281 L 326.46875 203.121094 L 326.550781 203.207031 L 326.589844 203.246094 L 327.015625 203.691406 C 327.105469 203.785156 327.199219 203.882812 327.289062 203.980469 L 327.304688 203.992188 C 327.382812 204.074219 327.457031 204.15625 327.535156 204.238281 L 328.070312 204.792969 L 328.105469 204.832031 L 328.214844 204.949219 C 328.394531 205.132812 328.578125 205.328125 328.757812 205.515625 L 328.820312 205.582031 L 328.855469 205.617188 L 328.957031 205.722656 C 355.394531 233.402344 401.816406 282 401.816406 282 C 413.050781 293.234375 428.289062 299.546875 444.179688 299.546875 L 509.226562 299.546875 C 517.496094 299.546875 524.203125 292.84375 524.203125 284.570312 C 524.203125 276.296875 517.5 269.59375 509.226562 269.59375 L 444.179688 269.59375 C 436.457031 269.652344 429.023438 266.679688 423.476562 261.308594 L 332.25 165.816406 C 328.585938 162.144531 328.585938 156.199219 332.25 152.527344 C 333.992188 150.75 336.382812 149.757812 338.871094 149.773438 C 347.144531 149.78125 353.855469 143.082031 353.863281 134.8125 C 353.875 126.539062 347.175781 119.828125 338.902344 119.816406 C 338.894531 119.816406 338.882812 119.816406 338.871094 119.816406 Z M 338.871094 119.816406 " style=" stroke:none;fill-rule:nonzero;fill:rgb(100%,55.294118%,27.058824%);fill-opacity:1;" />
<path d="M 419.363281 0 L 344.476562 0 C 336.207031 0 329.5 6.707031 329.5 14.976562 C 329.5 36.03125 389.410156 89.699219 476.429688 89.699219 C 499.148438 89.699219 516.304688 68.113281 506.347656 47.695312 C 495.257812 24.953125 464.859375 0 419.363281 0 Z M 419.363281 0 " style=" stroke:none;fill-rule:nonzero;fill:rgb(18.823529%,74.901961%,0%);fill-opacity:1;" />
<path d="M 449.316406 88.058594 C 441.042969 88.070312 434.347656 94.785156 434.359375 103.058594 C 434.367188 110.625 440.019531 116.992188 447.527344 117.90625 C 451.996094 118.449219 456.542969 118.871094 461.167969 119.167969 C 461.492188 119.191406 461.816406 119.199219 462.136719 119.199219 C 470.40625 119.191406 477.105469 112.480469 477.097656 104.207031 C 477.09375 96.308594 470.953125 89.777344 463.074219 89.273438 C 460.140625 89.085938 457.246094 88.84375 454.386719 88.539062 L 454.363281 88.535156 L 454.148438 88.511719 L 454.132812 88.511719 L 454.027344 88.5 L 453.980469 88.496094 L 453.835938 88.480469 L 453.679688 88.464844 L 453.566406 88.449219 L 453.5 88.445312 L 453.378906 88.429688 L 453.320312 88.425781 L 453.167969 88.40625 L 453.140625 88.40625 L 453 88.386719 L 452.964844 88.382812 L 452.796875 88.367188 L 452.78125 88.363281 L 452.621094 88.34375 L 452.601562 88.34375 L 452.429688 88.324219 L 452.414062 88.320312 C 452.300781 88.308594 452.175781 88.292969 452.0625 88.28125 L 452.050781 88.28125 C 451.808594 88.25 451.566406 88.222656 451.324219 88.195312 L 451.320312 88.195312 L 451.136719 88.171875 C 450.535156 88.097656 449.925781 88.058594 449.316406 88.058594 Z M 449.316406 88.058594 " style=" stroke:none;fill-rule:nonzero;fill:rgb(100%,41.176471%,4.313725%);fill-opacity:1;" />
<path d="M 394.582031 41.445312 C 386.308594 41.441406 379.601562 48.144531 379.597656 56.417969 C 379.59375 62.191406 382.910156 67.449219 388.117188 69.941406 C 399.28125 75.257812 410.914062 79.535156 422.863281 82.714844 L 422.867188 82.714844 C 423.546875 82.894531 424.222656 83.070312 424.90625 83.246094 L 424.910156 83.246094 C 425.195312 83.320312 425.476562 83.390625 425.761719 83.464844 L 425.773438 83.464844 C 425.882812 83.492188 425.996094 83.523438 426.109375 83.550781 C 426.222656 83.578125 426.335938 83.605469 426.449219 83.636719 L 426.457031 83.636719 L 426.625 83.679688 L 426.628906 83.679688 C 426.742188 83.707031 426.855469 83.734375 426.964844 83.761719 L 426.976562 83.765625 C 427.085938 83.789062 427.199219 83.820312 427.3125 83.847656 L 427.320312 83.847656 C 427.433594 83.875 427.546875 83.902344 427.660156 83.929688 L 427.832031 83.972656 L 427.835938 83.972656 C 427.949219 84 428.066406 84.027344 428.179688 84.054688 L 428.183594 84.058594 L 428.523438 84.136719 L 428.53125 84.140625 L 428.699219 84.179688 L 428.703125 84.179688 L 428.875 84.222656 L 428.878906 84.222656 L 429.042969 84.261719 L 429.054688 84.265625 C 429.167969 84.289062 429.277344 84.316406 429.390625 84.339844 L 429.402344 84.34375 C 429.515625 84.371094 429.632812 84.398438 429.742188 84.421875 L 429.75 84.421875 C 429.921875 84.464844 430.09375 84.503906 430.269531 84.542969 L 430.273438 84.542969 C 430.390625 84.570312 430.503906 84.597656 430.617188 84.621094 L 430.621094 84.625 C 430.738281 84.648438 430.851562 84.675781 430.96875 84.703125 L 430.972656 84.703125 L 431.140625 84.742188 L 431.15625 84.742188 C 431.269531 84.769531 431.378906 84.792969 431.492188 84.820312 L 431.507812 84.820312 C 431.617188 84.847656 431.730469 84.871094 431.839844 84.894531 L 431.859375 84.898438 C 431.972656 84.921875 432.085938 84.949219 432.199219 84.972656 L 432.203125 84.972656 L 432.375 85.011719 L 432.386719 85.015625 L 432.554688 85.050781 L 432.558594 85.050781 L 432.722656 85.085938 L 432.742188 85.089844 C 432.855469 85.113281 432.964844 85.136719 433.078125 85.164062 L 433.09375 85.164062 L 433.261719 85.203125 L 433.269531 85.203125 L 433.4375 85.238281 L 433.441406 85.238281 L 433.609375 85.273438 L 433.625 85.277344 C 433.738281 85.300781 433.847656 85.324219 433.960938 85.347656 L 433.980469 85.351562 L 434.320312 85.421875 L 434.328125 85.425781 L 434.5 85.460938 L 434.507812 85.460938 C 434.566406 85.472656 434.621094 85.484375 434.675781 85.496094 L 434.679688 85.496094 L 434.851562 85.53125 L 434.863281 85.535156 C 434.980469 85.558594 435.09375 85.582031 435.207031 85.605469 L 435.21875 85.605469 L 435.390625 85.640625 L 435.398438 85.644531 L 435.5625 85.675781 L 435.574219 85.679688 L 435.742188 85.710938 L 435.757812 85.714844 C 435.871094 85.738281 435.984375 85.761719 436.097656 85.78125 L 436.113281 85.785156 C 436.230469 85.808594 436.339844 85.832031 436.457031 85.851562 L 436.46875 85.855469 C 436.585938 85.878906 436.703125 85.902344 436.816406 85.921875 L 436.824219 85.925781 L 436.992188 85.953125 L 437.003906 85.953125 L 437.347656 86.019531 L 437.363281 86.023438 L 437.710938 86.089844 L 437.714844 86.089844 L 437.890625 86.125 L 437.898438 86.125 C 438.015625 86.148438 438.128906 86.167969 438.246094 86.191406 L 438.261719 86.191406 C 438.378906 86.214844 438.492188 86.234375 438.605469 86.257812 L 438.621094 86.257812 C 438.734375 86.28125 438.847656 86.300781 438.960938 86.320312 L 438.984375 86.324219 L 439.148438 86.355469 L 439.164062 86.359375 L 439.332031 86.386719 L 439.339844 86.390625 L 439.527344 86.421875 L 439.695312 86.453125 L 439.699219 86.453125 L 439.863281 86.484375 L 439.890625 86.488281 L 440.058594 86.515625 L 440.066406 86.519531 L 440.230469 86.546875 L 440.246094 86.550781 L 440.414062 86.582031 L 440.433594 86.585938 C 440.546875 86.605469 440.664062 86.625 440.777344 86.644531 L 440.796875 86.648438 L 441.132812 86.707031 L 441.160156 86.710938 L 441.328125 86.738281 L 441.335938 86.742188 L 441.507812 86.769531 L 441.515625 86.769531 L 441.683594 86.800781 L 441.707031 86.804688 C 441.820312 86.824219 441.933594 86.84375 442.046875 86.859375 L 442.070312 86.867188 L 442.238281 86.894531 L 442.25 86.894531 C 442.304688 86.902344 442.355469 86.914062 442.410156 86.921875 L 442.597656 86.953125 L 442.625 86.957031 L 442.78125 86.984375 L 442.792969 86.984375 L 442.957031 87.011719 L 442.988281 87.015625 L 443.320312 87.070312 L 443.347656 87.074219 L 443.515625 87.101562 L 443.527344 87.105469 L 443.695312 87.132812 L 443.710938 87.132812 L 443.878906 87.160156 L 443.898438 87.164062 L 444.242188 87.21875 L 444.265625 87.222656 L 444.613281 87.273438 L 444.628906 87.277344 L 444.800781 87.304688 L 444.816406 87.308594 L 444.988281 87.332031 L 444.992188 87.335938 L 445.167969 87.359375 L 445.183594 87.363281 C 445.300781 87.382812 445.414062 87.398438 445.527344 87.414062 L 445.554688 87.421875 L 445.722656 87.445312 L 445.734375 87.445312 L 445.898438 87.472656 L 445.921875 87.472656 L 446.089844 87.5 L 446.109375 87.5 L 446.265625 87.523438 L 446.285156 87.527344 L 446.453125 87.550781 L 446.484375 87.558594 L 446.820312 87.605469 L 446.851562 87.609375 L 447.015625 87.632812 L 447.035156 87.636719 L 447.195312 87.660156 L 447.214844 87.664062 L 447.382812 87.6875 L 447.410156 87.691406 L 447.574219 87.710938 L 447.582031 87.714844 L 447.746094 87.738281 L 447.78125 87.742188 C 447.894531 87.757812 448.007812 87.773438 448.121094 87.789062 L 448.3125 87.816406 L 448.335938 87.820312 L 448.488281 87.839844 L 448.515625 87.84375 L 448.683594 87.863281 L 448.710938 87.867188 C 448.824219 87.882812 448.941406 87.898438 449.054688 87.914062 L 449.078125 87.917969 L 449.253906 87.941406 L 449.261719 87.941406 L 449.425781 87.964844 L 449.453125 87.964844 L 449.621094 87.988281 L 449.644531 87.992188 L 449.808594 88.011719 L 449.820312 88.015625 L 449.988281 88.035156 L 450.023438 88.039062 L 450.359375 88.082031 L 450.398438 88.085938 L 450.5625 88.109375 L 450.578125 88.109375 L 450.738281 88.128906 L 450.761719 88.132812 L 450.929688 88.152344 L 450.960938 88.15625 L 451.113281 88.175781 L 451.136719 88.179688 L 451.300781 88.199219 L 451.335938 88.203125 L 451.503906 88.222656 L 451.515625 88.222656 L 451.675781 88.242188 L 451.707031 88.246094 L 451.875 88.265625 L 451.898438 88.269531 L 452.050781 88.289062 L 452.078125 88.292969 L 452.246094 88.308594 L 452.277344 88.316406 C 452.390625 88.328125 452.503906 88.339844 452.617188 88.351562 L 452.648438 88.359375 L 452.824219 88.378906 L 452.828125 88.378906 L 452.992188 88.394531 L 453.027344 88.402344 L 453.195312 88.417969 L 453.21875 88.421875 L 453.375 88.4375 L 453.398438 88.441406 L 453.566406 88.460938 L 453.597656 88.464844 L 453.757812 88.480469 L 453.773438 88.484375 L 453.941406 88.503906 L 453.976562 88.507812 L 454.144531 88.523438 L 454.164062 88.527344 L 454.320312 88.542969 L 454.347656 88.546875 L 454.515625 88.5625 L 454.703125 88.585938 L 454.722656 88.585938 L 454.890625 88.605469 L 454.925781 88.605469 C 455.039062 88.621094 455.152344 88.628906 455.265625 88.640625 L 455.300781 88.644531 L 455.472656 88.664062 L 455.488281 88.664062 L 455.648438 88.679688 L 455.675781 88.683594 L 455.84375 88.699219 L 455.882812 88.703125 L 456.027344 88.71875 L 456.054688 88.722656 L 456.214844 88.738281 L 456.261719 88.742188 L 456.425781 88.757812 L 456.4375 88.757812 L 456.601562 88.773438 L 456.636719 88.777344 L 456.800781 88.792969 L 456.835938 88.796875 L 456.984375 88.808594 L 457.011719 88.8125 L 457.175781 88.828125 L 457.21875 88.832031 L 457.367188 88.84375 L 457.390625 88.847656 L 457.554688 88.863281 L 457.601562 88.867188 L 457.765625 88.882812 L 457.78125 88.882812 L 457.9375 88.894531 L 457.976562 88.898438 L 458.144531 88.914062 L 458.171875 88.917969 L 458.328125 88.929688 L 458.351562 88.933594 L 458.523438 88.949219 L 458.550781 88.949219 C 458.667969 88.960938 458.785156 88.972656 458.902344 88.980469 L 458.933594 88.984375 L 459.101562 89 L 459.132812 89 L 459.28125 89.011719 L 459.316406 89.015625 L 459.484375 89.03125 L 459.511719 89.03125 L 459.675781 89.046875 L 459.691406 89.046875 L 459.863281 89.058594 L 459.898438 89.0625 L 460.074219 89.078125 L 460.246094 89.089844 L 460.28125 89.09375 L 460.457031 89.105469 L 460.472656 89.105469 L 460.636719 89.121094 L 460.664062 89.121094 L 460.832031 89.136719 L 460.863281 89.136719 L 461.035156 89.148438 L 461.042969 89.148438 L 461.214844 89.164062 L 461.253906 89.167969 L 461.425781 89.179688 L 461.441406 89.179688 L 461.597656 89.191406 L 461.636719 89.191406 L 461.804688 89.203125 L 461.839844 89.207031 L 461.988281 89.21875 L 462.019531 89.222656 L 462.1875 89.230469 L 462.226562 89.234375 C 462.339844 89.242188 462.457031 89.25 462.570312 89.257812 L 462.609375 89.261719 L 462.78125 89.273438 L 462.800781 89.273438 L 462.957031 89.28125 L 462.992188 89.285156 L 463.160156 89.296875 L 463.199219 89.300781 L 463.355469 89.308594 L 463.375 89.308594 L 463.542969 89.320312 L 463.585938 89.324219 L 463.746094 89.332031 L 463.773438 89.335938 L 463.9375 89.34375 L 463.964844 89.347656 L 464.140625 89.355469 L 464.164062 89.359375 L 464.328125 89.367188 L 464.351562 89.367188 L 464.527344 89.378906 L 464.5625 89.382812 L 464.722656 89.390625 L 464.738281 89.390625 L 464.910156 89.402344 L 464.949219 89.402344 L 465.125 89.410156 L 465.132812 89.410156 L 465.292969 89.421875 L 465.339844 89.421875 L 465.503906 89.433594 L 465.539062 89.433594 L 465.691406 89.441406 L 465.722656 89.445312 L 465.894531 89.453125 L 465.929688 89.453125 L 466.089844 89.460938 L 466.109375 89.464844 L 466.28125 89.472656 L 466.316406 89.472656 L 466.492188 89.480469 L 466.511719 89.484375 L 466.671875 89.492188 L 466.707031 89.492188 L 466.875 89.5 L 466.914062 89.503906 L 467.066406 89.511719 L 467.09375 89.511719 L 467.261719 89.519531 L 467.304688 89.519531 L 467.472656 89.527344 L 467.484375 89.527344 L 467.652344 89.535156 L 467.695312 89.535156 L 467.867188 89.542969 L 467.886719 89.542969 L 468.046875 89.550781 L 468.082031 89.554688 L 468.253906 89.558594 L 468.285156 89.5625 L 468.449219 89.566406 L 468.46875 89.566406 L 468.644531 89.574219 L 468.675781 89.574219 L 469.035156 89.589844 L 469.066406 89.589844 L 469.242188 89.597656 L 469.269531 89.597656 L 469.433594 89.601562 L 469.457031 89.601562 L 469.632812 89.609375 L 469.671875 89.609375 L 469.835938 89.613281 L 469.851562 89.613281 L 470.019531 89.621094 L 470.066406 89.621094 L 470.238281 89.625 L 470.25 89.625 L 470.417969 89.632812 L 470.453125 89.632812 L 470.628906 89.636719 L 470.65625 89.640625 L 470.816406 89.644531 L 470.84375 89.644531 L 471.019531 89.648438 L 471.054688 89.648438 L 471.226562 89.652344 L 471.234375 89.652344 L 471.410156 89.65625 L 471.453125 89.660156 L 471.621094 89.664062 L 471.660156 89.664062 L 471.804688 89.667969 L 471.84375 89.667969 L 472.011719 89.671875 L 472.054688 89.671875 L 472.203125 89.675781 L 472.234375 89.675781 L 472.40625 89.679688 L 472.449219 89.679688 L 472.625 89.683594 L 472.632812 89.683594 L 472.800781 89.6875 L 472.84375 89.6875 L 473.011719 89.691406 L 473.050781 89.691406 L 473.195312 89.695312 L 473.238281 89.695312 L 473.40625 89.699219 L 473.625 89.699219 L 473.804688 89.703125 L 474.035156 89.703125 L 474.199219 89.707031 L 474.441406 89.707031 L 474.605469 89.710938 L 475.246094 89.710938 L 475.425781 89.714844 L 476.96875 89.714844 L 477.015625 89.710938 L 477.246094 89.710938 L 477.285156 89.707031 L 477.375 89.707031 L 477.414062 89.703125 L 477.503906 89.703125 L 477.535156 89.699219 L 477.628906 89.699219 L 477.675781 89.695312 L 477.753906 89.695312 L 477.78125 89.691406 L 477.878906 89.691406 L 477.90625 89.6875 L 478.003906 89.6875 L 478.035156 89.683594 L 478.097656 89.683594 L 478.132812 89.679688 L 478.160156 89.679688 L 478.203125 89.675781 L 478.222656 89.675781 L 478.269531 89.671875 L 478.285156 89.671875 L 478.347656 89.667969 L 478.363281 89.667969 L 478.410156 89.664062 L 478.4375 89.664062 L 478.472656 89.660156 L 478.507812 89.660156 L 478.53125 89.65625 L 478.570312 89.65625 L 478.597656 89.652344 L 478.65625 89.652344 L 478.695312 89.648438 L 478.71875 89.644531 L 478.78125 89.644531 L 478.820312 89.640625 L 478.835938 89.640625 L 478.992188 89.628906 L 479 89.628906 L 479.042969 89.625 L 479.058594 89.625 L 479.101562 89.621094 L 479.121094 89.617188 L 479.160156 89.617188 L 479.183594 89.613281 L 479.222656 89.609375 L 479.246094 89.609375 L 479.28125 89.605469 L 479.308594 89.605469 L 479.34375 89.601562 L 479.363281 89.597656 L 479.40625 89.59375 L 479.421875 89.59375 L 479.636719 89.574219 L 479.648438 89.574219 L 479.691406 89.570312 L 479.707031 89.566406 L 479.746094 89.566406 L 479.769531 89.5625 L 479.808594 89.558594 L 479.828125 89.558594 L 479.871094 89.554688 L 479.890625 89.550781 L 479.929688 89.546875 L 479.953125 89.542969 L 479.988281 89.539062 L 480.011719 89.539062 L 480.050781 89.535156 L 480.058594 89.535156 L 480.21875 89.515625 L 480.230469 89.515625 L 480.277344 89.511719 L 480.289062 89.511719 L 480.335938 89.503906 L 480.347656 89.503906 L 480.394531 89.5 L 480.410156 89.496094 L 480.453125 89.492188 L 480.46875 89.488281 L 480.515625 89.484375 L 480.527344 89.484375 L 480.574219 89.476562 L 480.582031 89.476562 C 480.695312 89.464844 480.808594 89.449219 480.921875 89.433594 L 480.925781 89.433594 L 480.980469 89.425781 L 480.984375 89.425781 L 481.035156 89.417969 L 481.042969 89.417969 L 481.097656 89.410156 L 481.101562 89.410156 L 481.152344 89.402344 L 481.160156 89.402344 C 481.3125 89.382812 481.464844 89.359375 481.617188 89.335938 C 481.828125 89.304688 482.039062 89.273438 482.246094 89.238281 L 482.304688 89.226562 C 487.246094 88.402344 491.949219 86.5 496.074219 83.660156 L 496.078125 83.660156 L 496.117188 83.628906 L 496.121094 83.628906 L 496.164062 83.601562 L 496.167969 83.597656 L 496.207031 83.566406 L 496.210938 83.566406 L 496.253906 83.539062 L 496.257812 83.535156 C 496.34375 83.472656 496.433594 83.410156 496.519531 83.347656 L 496.558594 83.320312 L 496.566406 83.316406 L 496.613281 83.285156 L 496.644531 83.257812 L 496.738281 83.195312 L 496.75 83.183594 L 496.78125 83.164062 L 496.796875 83.148438 L 496.828125 83.128906 L 496.949219 83.035156 L 496.957031 83.03125 L 496.996094 83.003906 L 497 83 L 497.035156 82.972656 L 497.046875 82.964844 L 497.09375 82.929688 L 497.121094 82.910156 L 497.140625 82.894531 L 497.164062 82.875 L 497.183594 82.863281 L 497.210938 82.839844 L 497.230469 82.828125 L 497.257812 82.808594 L 497.273438 82.792969 L 497.300781 82.773438 L 497.378906 82.714844 L 497.390625 82.707031 L 497.414062 82.6875 L 497.453125 82.65625 L 497.480469 82.636719 L 497.5 82.621094 L 497.523438 82.601562 L 497.570312 82.570312 L 497.59375 82.550781 L 497.613281 82.53125 L 497.636719 82.515625 L 497.660156 82.496094 L 497.683594 82.480469 L 497.707031 82.460938 L 497.726562 82.445312 L 497.75 82.425781 L 497.78125 82.402344 L 497.816406 82.375 L 497.828125 82.367188 L 497.859375 82.339844 L 497.90625 82.304688 L 497.921875 82.289062 L 497.949219 82.269531 L 497.964844 82.253906 L 497.992188 82.234375 L 498.007812 82.21875 L 498.035156 82.195312 L 498.054688 82.183594 L 498.082031 82.160156 L 498.097656 82.148438 L 498.128906 82.121094 L 498.140625 82.113281 L 498.183594 82.078125 L 498.277344 82.003906 L 498.28125 82 L 498.320312 81.96875 L 498.332031 81.957031 L 498.363281 81.929688 L 498.378906 81.921875 L 498.410156 81.894531 L 498.421875 81.882812 L 498.46875 81.847656 L 498.496094 81.820312 L 498.511719 81.808594 L 498.542969 81.78125 L 498.554688 81.773438 L 498.589844 81.742188 L 498.597656 81.734375 C 498.65625 81.683594 498.714844 81.636719 498.773438 81.585938 L 498.78125 81.582031 L 498.820312 81.546875 L 498.824219 81.542969 L 498.863281 81.507812 L 498.871094 81.503906 L 498.910156 81.46875 L 498.910156 81.464844 C 499.015625 81.375 499.117188 81.285156 499.222656 81.195312 L 499.222656 81.191406 L 499.265625 81.15625 C 500.179688 80.339844 501.046875 79.472656 501.863281 78.5625 C 507.363281 72.386719 506.816406 62.917969 500.640625 57.417969 C 494.46875 51.917969 485.007812 52.460938 479.503906 58.628906 C 478.679688 59.414062 477.570312 59.824219 476.433594 59.765625 C 450.359375 59.820312 424.605469 54.070312 401.03125 42.933594 C 399.015625 41.949219 396.8125 41.445312 394.582031 41.445312 Z M 394.582031 41.445312 " style=" stroke:none;fill-rule:nonzero;fill:rgb(5.098039%,62.352941%,0%);fill-opacity:1;" />
<path d="M 404.386719 0 L 434.339844 0 C 442.613281 0 449.316406 6.707031 449.316406 14.976562 C 449.316406 23.25 442.613281 29.953125 434.339844 29.953125 L 404.386719 29.953125 C 396.117188 29.953125 389.410156 23.25 389.410156 14.976562 C 389.410156 6.707031 396.113281 0 404.386719 0 Z M 404.386719 0 " style=" stroke:none;fill-rule:nonzero;fill:rgb(54.117647%,91.372549%,38.823529%);fill-opacity:1;" />
<path d="M 464.296875 239.636719 L 494.25 239.636719 C 502.523438 239.636719 509.226562 246.339844 509.226562 254.613281 C 509.226562 262.882812 502.523438 269.589844 494.25 269.589844 L 464.296875 269.589844 C 456.023438 269.589844 449.320312 262.882812 449.320312 254.613281 C 449.316406 246.339844 456.023438 239.636719 464.296875 239.636719 Z M 464.296875 239.636719 " style=" stroke:none;fill-rule:nonzero;fill:rgb(100%,80.784314%,68.627451%);fill-opacity:1;" />
<path d="M 329.5 524.203125 C 329.5 532.476562 322.796875 539.183594 314.523438 539.183594 C 306.25 539.183594 299.546875 532.476562 299.546875 524.203125 C 299.546875 515.933594 306.25 509.226562 314.523438 509.226562 C 322.796875 509.226562 329.5 515.933594 329.5 524.203125 Z M 329.5 524.203125 " style=" stroke:none;fill-rule:nonzero;fill:rgb(89.411765%,85.882353%,100%);fill-opacity:1;" />
<path d="M 341.90625 479.273438 L 370.539062 479.273438 C 381.808594 479.273438 391.8125 486.484375 395.375 497.175781 L 414.246094 553.785156 C 417.382812 563.195312 414.933594 573.566406 407.921875 580.578125 C 397.699219 590.800781 381.121094 590.800781 370.898438 580.578125 L 320.726562 530.410156 C 309.027344 518.710938 309.027344 499.746094 320.726562 488.046875 C 326.34375 482.429688 333.964844 479.273438 341.90625 479.273438 Z M 341.90625 479.273438 " style=" stroke:none;fill-rule:nonzero;fill:rgb(5.098039%,62.352941%,0%);fill-opacity:1;" />
<path d="M 404.980469 525.980469 L 395.375 497.175781 C 391.8125 486.484375 381.808594 479.273438 370.539062 479.273438 L 341.90625 479.273438 C 333.636719 479.273438 326.929688 485.980469 326.929688 494.25 C 326.929688 502.523438 333.636719 509.230469 341.90625 509.230469 L 367.820312 509.230469 L 376.5625 535.457031 C 379.175781 543.300781 387.660156 547.542969 395.507812 544.929688 C 403.351562 542.3125 407.59375 533.828125 404.980469 525.980469 Z M 404.980469 525.980469 " style=" stroke:none;fill-rule:nonzero;fill:rgb(18.823529%,74.901961%,0%);fill-opacity:1;" />
</g>
</svg>