<svg height="512" viewBox="0 0 512 512" width="512" xmlns="http://www.w3.org/2000/svg"><g id="flat"><path d="m423.99 192a8 8 0 0 1 -7.909-6.869l-7.24-50.676-26.781-6.695c-4.287-1.072-4.893-5.415-3.821-9.7s3.415-6.9 7.7-5.821l32 8a8 8 0 0 1 5.979 6.629l8 56a8 8 0 0 1 -7.928 9.132z" fill="#cbcbcb"/><path d="m384 144a8 8 0 0 1 -8-8v-32a8 8 0 0 1 16 0v32a8 8 0 0 1 -8 8z" fill="#cbcbcb"/><path d="m40 24h72v48h-72z" fill="#02a437"/><path d="m112 160a8 8 0 0 1 -8-8v-128a8 8 0 0 1 16 0v128a8 8 0 0 1 -8 8z" fill="#cbcbcb"/><path d="m63.993 344a7.968 7.968 0 0 1 -4.431-1.345l-24-16a8 8 0 0 1 -3.562-6.655v-24a8 8 0 0 1 16 0v19.719l20.438 13.625a8 8 0 0 1 -4.445 14.656z" fill="#cbcbcb"/><path d="m368 432h-344a135.2 135.2 0 0 1 39.6-95.6l40.4-40.4h184v32l-18 13.5a35 35 0 0 0 -14 28 35 35 0 0 0 10.252 24.751l5.748 5.749h96z" fill="#ea9d2d"/><path d="m284.95 123.564-30.869-6 9-16.817 30.593 8.039z" fill="#02a437"/><path d="m396 184h44a0 0 0 0 1 0 0v40a0 0 0 0 1 0 0h-44a20 20 0 0 1 -20-20 20 20 0 0 1 20-20z" fill="#ea9d2d"/><path d="m440 184h24v40h-24z" fill="#cbcbcb"/><circle cx="376" cy="200" fill="#683b0d" r="16"/><circle cx="416" cy="432" fill="#656666" r="56"/><circle cx="416" cy="432" fill="#eaeae8" r="24"/><circle cx="144" cy="432" fill="#656666" r="56"/><circle cx="144" cy="432" fill="#eaeae8" r="24"/><path d="m152 336h32a48 48 0 0 1 48 48 48 48 0 0 1 -48 48h-128a0 0 0 0 1 0 0 96 96 0 0 1 96-96z" fill="#fbb540"/><path d="m24 184h160v112h-160z" fill="#027e2a"/><path d="m24 152h160v32h-160z" fill="#02a437"/><path d="m184 264h104v32h-104z" fill="#683b0d"/><path d="m376 400v-83.156a95.263 95.263 0 0 1 16-52.844v-40h32l32 152-8 24z" fill="#fbb540"/><path d="m344 432a72 72 0 0 1 144 0z" fill="#ea9d2d"/><path d="m216 232v10a22 22 0 0 0 22 22h50v88h40v-90a30 30 0 0 0 -30-30z" fill="#027e2a"/><path d="m288 352v48h64v-24l-24-24z" fill="#cbcbcb"/><path d="m208 232 24.827-94.9a34.615 34.615 0 0 1 33.283-25.1 34.615 34.615 0 0 1 33.283 44.124l-19.393 75.876z" fill="#02a437"/><path d="m265.462 144.558 22.538 39.442h64v-32h-40l-15.4-25.675a18.041 18.041 0 0 0 -23.538-6.854 18.041 18.041 0 0 0 -7.6 25.087z" fill="#027e2a"/><path d="m352 152h23.644a16.356 16.356 0 0 1 16.356 16.356v15.644h-40z" fill="#f6bb92"/><path d="m336 123-96-16v-32a48 48 0 0 1 48-48 48 48 0 0 1 38.4 19.2 48 48 0 0 1 9.6 28.8z" fill="#02a437"/><path d="m336 75v24l-48-16v-24h45.25c.1.27.2.54.29.82a47.982 47.982 0 0 1 2.46 15.18z" fill="#02a437"/><path d="m336 75v24l-48-16v-24h45.25c.1.27.2.54.29.82a47.982 47.982 0 0 1 2.46 15.18z" fill="#cbcbcb"/><g fill="#ea9d2d"><path d="m128 400a8 8 0 0 1 -8-8v-24a8 8 0 0 1 16 0v24a8 8 0 0 1 -8 8z"/><path d="m160 400a8 8 0 0 1 -8-8v-24a8 8 0 0 1 16 0v24a8 8 0 0 1 -8 8z"/><path d="m192 400a8 8 0 0 1 -8-8v-24a8 8 0 0 1 16 0v24a8 8 0 0 1 -8 8z"/></g><path d="m136 256h-64a8 8 0 0 1 -8-8v-24a8 8 0 0 1 16 0v16h48v-16a8 8 0 0 1 16 0v24a8 8 0 0 1 -8 8z" fill="#014e1a"/></g></svg>